<?xml version="1.0" standalone="no"?>
<!DOCTYPE svg PUBLIC "-//W3C//DTD SVG 1.1//EN" "http://www.w3.org/Graphics/SVG/1.1/DTD/svg11.dtd" >
<svg xmlns="http://www.w3.org/2000/svg">
<metadata></metadata>
<defs>
<font id="newcenturyschlbk_lt_stdbold" horiz-adv-x="1251" >
<font-face units-per-em="2048" ascent="1509" descent="-539" />
<missing-glyph horiz-adv-x="587" />
<glyph horiz-adv-x="2048" />
<glyph horiz-adv-x="2048" />
<glyph unicode="&#xd;" horiz-adv-x="2048" />
<glyph unicode=" "  horiz-adv-x="587" />
<glyph unicode="&#x09;" horiz-adv-x="587" />
<glyph unicode="&#xa0;" horiz-adv-x="587" />
<glyph unicode="!" horiz-adv-x="606" d="M109 164q0 80 57.5 137t136.5 57q80 0 137.5 -57.5t57.5 -136.5q0 -80 -58 -137.5t-137 -57.5t-136.5 57.5t-57.5 137.5zM109 1311q0 89 52 143.5t142 54.5t142.5 -54.5t52.5 -143.5q0 -71 -20.5 -156.5t-45.5 -161.5t-47 -217.5t-25 -310.5h-114q-3 169 -25 310.5 t-46.5 217.5t-45 161.5t-20.5 156.5z" />
<glyph unicode="&#x22;" horiz-adv-x="681" d="M0 1358q0 69 35 110t104 41t104.5 -41t35.5 -110q0 -34 -17 -174l-53 -410h-139l-54 410q-16 132 -16 174zM403 1358q0 69 35.5 110t104.5 41t104 -41t35 -110q0 -42 -16 -174l-54 -410h-139l-53 410q-17 140 -17 174z" />
<glyph unicode="#" horiz-adv-x="1175" d="M74 406v180h198l33 241h-174v181h199l57 405h193l-58 -405h213l58 405h192l-57 -405h174v-181h-199l-33 -241h174v-180h-198l-58 -406h-192l57 406h-213l-57 -406h-193l58 406h-174zM465 586h213l33 241h-213z" />
<glyph unicode="$" horiz-adv-x="1175" d="M51 317q0 76 49.5 130.5t124.5 54.5q67 0 115.5 -39.5t48.5 -106.5q0 -43 -13.5 -76.5t-29.5 -49t-29.5 -29.5t-13.5 -23q0 -43 69 -71.5t165 -36.5v508q-230 72 -337.5 173t-107.5 257q0 96 36.5 176t99.5 133t141.5 85t167.5 42v215h110v-215q59 -2 117 -11.5 t120.5 -32t109.5 -55.5t77.5 -86.5t30.5 -119.5q0 -76 -50.5 -125t-127.5 -49q-69 0 -109.5 48.5t-40.5 108.5q0 47 23.5 83.5t23.5 54.5q0 34 -46.5 55.5t-127.5 27.5v-446q265 -86 371 -189t106 -284q0 -86 -27 -159.5t-73 -125t-107.5 -89t-129 -57t-140.5 -24.5v-258 h-110v258q-65 3 -129.5 16t-130 40t-115 65t-80.5 97t-31 130zM338 1124q0 -75 48.5 -122.5t150.5 -75.5v417q-92 -12 -145.5 -68.5t-53.5 -150.5zM647 70q98 13 165 71.5t67 155.5q0 92 -63 154.5t-169 93.5v-475z" />
<glyph unicode="%" horiz-adv-x="1705" d="M29 885q0 114 73 237.5t191 207t235 83.5q138 0 213 -125q22 -37 146 -37q102 0 197.5 55.5t158.5 137.5h100l-858 -1475h-100l743 1278l-4 4q-113 -77 -223 -77q-57 0 -135 20q6 -60 6 -74q0 -61 -18.5 -130t-58 -138.5t-93 -125.5t-130.5 -91t-165 -35q-50 0 -98 18.5 t-89 52.5t-66 90t-25 124zM262 788q0 -110 103 -110q68 0 133 45.5t110 115t72 152t27 156.5q0 50 -19 82q-73 37 -113 94q-51 0 -109.5 -64t-102 -151.5t-72.5 -177t-29 -142.5zM934 270q0 93 42.5 190.5t110 174t160 125.5t185.5 49q107 0 176 -75t69 -216 q0 -41 -12.5 -93.5t-36 -111t-61.5 -114t-84.5 -100t-110.5 -72t-135 -27.5q-147 0 -225 78.5t-78 191.5zM1167 186q0 -49 33 -78.5t94 -29.5q46 0 101.5 40t103.5 103t80.5 150t32.5 172q0 77 -36 126.5t-91 49.5q-65 0 -142 -105t-126.5 -231t-49.5 -197z" />
<glyph unicode="&#x26;" horiz-adv-x="1744" d="M70 373q0 283 417 456q-79 146 -79 289q0 179 120.5 285t315.5 106q172 0 274.5 -81t102.5 -211q0 -117 -93.5 -207.5t-269.5 -153.5q95 -162 293 -444q61 80 81.5 126.5t20.5 88.5q0 53 -41 79.5t-114 26.5h-29v101h557v-101q-79 -5 -123 -23t-72.5 -51.5t-70.5 -111.5 q-79 -148 -141 -221q109 -152 202 -152q69 0 107.5 51.5t48.5 126.5l98 -22q-37 -174 -124.5 -267.5t-254.5 -93.5q-78 0 -167 36.5t-154 100.5q-178 -137 -443 -137q-117 0 -208.5 35t-145.5 94t-81 129t-27 146zM408 526q0 -30 9 -69.5t26.5 -85t47 -89t66 -79t88 -57 t109.5 -21.5q42 0 82 14t61 37q-101 120 -209 283.5t-160 277.5q-120 -82 -120 -211zM686 1233q0 -39 34 -122.5t85 -166.5q95 39 144.5 103.5t49.5 166.5q0 81 -43 138t-118 57q-69 0 -110.5 -47.5t-41.5 -128.5z" />
<glyph unicode="'" horiz-adv-x="493" d="M109 1358q0 69 35 110t104 41t104 -41t35 -110q0 -42 -16 -174l-54 -410h-139l-53 410q-16 132 -16 174z" />
<glyph unicode="(" horiz-adv-x="796" d="M158 643q0 286 146.5 516.5t402.5 366.5v-78q-147 -99 -217 -296t-70 -509t70 -509t217 -296v-78q-256 136 -402.5 366.5t-146.5 516.5z" />
<glyph unicode=")" horiz-adv-x="796" d="M90 -162q147 99 217 296t70 509t-70 509t-217 296v78q256 -136 402.5 -366.5t146.5 -516.5t-146.5 -516.5t-402.5 -366.5v78z" />
<glyph unicode="*" horiz-adv-x="1024" d="M111 895q0 53 40 81t115 28q103 0 191 51v18q-88 51 -191 51q-75 0 -115 28t-40 81q0 39 26 67.5t66 28.5q49 0 84 -27.5t78 -99.5q45 -74 114 -98l8 6q5 15 5 43q0 44 -41 124.5t-41 119.5q0 51 28 81.5t74 30.5t74 -30.5t28 -81.5q0 -39 -41 -119.5t-41 -124.5 q0 -28 5 -43l8 -6q69 24 114 98q43 72 78 99.5t84 27.5q40 0 66 -28.5t26 -67.5q0 -53 -40 -81t-115 -28q-103 0 -191 -51v-18q88 -51 191 -51q75 0 115 -28t40 -81q0 -39 -26 -67.5t-66 -28.5q-49 0 -84 27.5t-78 99.5q-45 74 -114 98l-8 -6q-5 -15 -5 -43q0 -44 41 -124.5 t41 -119.5q0 -51 -28 -82t-74 -31t-74 31t-28 82q0 39 41 119.5t41 124.5q0 28 -5 43l-8 6q-69 -24 -114 -98q-43 -72 -78 -99.5t-84 -27.5q-40 0 -66 28.5t-26 67.5z" />
<glyph unicode="+" horiz-adv-x="1241" d="M102 408v221h408v407h221v-407h408v-221h-408v-408h-221v408h-408z" />
<glyph unicode="," horiz-adv-x="569" d="M82 158q0 88 58.5 144t133.5 56q99 0 156 -71.5t57 -173.5q0 -139 -86 -259t-262 -231l-57 82q86 53 149.5 130t63.5 130q0 21 -19 21q-5 0 -19.5 -2t-20.5 -2q-64 0 -109 57.5t-45 118.5z" />
<glyph unicode="-" horiz-adv-x="681" d="M86 356v262h510v-262h-510z" />
<glyph unicode="." horiz-adv-x="569" d="M90 164q0 79 57.5 136.5t137.5 57.5q79 0 136.5 -57t57.5 -137t-57.5 -137.5t-136.5 -57.5t-137 57.5t-58 137.5z" />
<glyph unicode="/" horiz-adv-x="569" d="M-86 -31l512 1540h229l-512 -1540h-229z" />
<glyph unicode="0" horiz-adv-x="1175" d="M55 707q0 145 33.5 269.5t88.5 208.5t125.5 144t143 87.5t142.5 27.5t142.5 -27.5t142.5 -87.5t125 -144t88.5 -208.5t33.5 -269.5t-33.5 -269.5t-88.5 -209t-125 -144.5t-142.5 -87.5t-142.5 -27.5t-142.5 27.5t-143 87.5t-125.5 144.5t-88.5 209t-33.5 269.5zM408 594 q0 -142 9 -240t22.5 -153.5t38.5 -85t49 -37.5t61 -8t61 8t49 37.5t38.5 85t22.5 153.5t9 240v182q0 173 -11.5 286.5t-36 174t-55.5 83.5t-77 23t-77 -23t-55.5 -83.5t-36 -174t-11.5 -286.5v-182z" />
<glyph unicode="1" horiz-adv-x="1175" d="M170 1192v111q177 3 297 34.5t219 106.5h68v-1231q0 -62 21.5 -82t101.5 -20h129v-111h-826v111h135q80 0 101.5 20t21.5 82v877q0 62 -21.5 82t-101.5 20h-145z" />
<glyph unicode="2" horiz-adv-x="1175" d="M39 0v78q145 207 473 553q126 132 177.5 238.5t51.5 211.5q0 116 -58.5 184t-178.5 68q-91 0 -155 -44t-64 -87q0 -25 18 -40t44 -26t52 -26.5t44 -53t18 -95.5q0 -69 -52.5 -115.5t-127.5 -46.5q-90 0 -145.5 67t-55.5 185q0 101 63.5 191t176.5 146t247 56 q71 0 142 -14t138 -45t118.5 -75.5t82.5 -111t31 -145.5q0 -109 -66.5 -226t-205.5 -206q-265 -169 -465 -326v-4h498q56 0 78.5 20.5t33.5 79.5l29 146h106l-45 -537h-1003z" />
<glyph unicode="3" horiz-adv-x="1175" d="M47 317q0 79 51.5 132t130.5 53q74 0 128.5 -44.5t54.5 -115.5q0 -81 -50 -121q-49 -39 -49 -63q0 -35 55 -61.5t144 -26.5q100 0 161.5 88t61.5 229q0 58 -8.5 108t-28 95.5t-56.5 71.5t-89 26q-25 0 -75 -6t-75 -6q-33 0 -52 17t-19 50q0 72 80 72q18 0 70 -13.5 t85 -13.5q65 0 109.5 71t44.5 233q0 124 -58 187.5t-155 63.5q-66 0 -110 -25t-44 -56q0 -16 15 -33t33.5 -32t33.5 -44t15 -66q0 -75 -45 -120t-123 -45q-80 0 -132.5 54t-52.5 136q0 60 30.5 118.5t86.5 106.5t146.5 77.5t199.5 29.5q229 0 358.5 -100t129.5 -254 q0 -75 -28 -135t-78.5 -100.5t-111 -67t-135.5 -42.5v-4q181 -13 286 -100.5t105 -263.5q0 -57 -16 -111t-56 -109t-100.5 -96t-157 -66.5t-216.5 -25.5q-94 0 -179 20t-157 60.5t-115 109.5t-43 158z" />
<glyph unicode="4" horiz-adv-x="1175" d="M39 360v158l745 926h142q-15 -180 -15 -289v-655h209v-140h-209v-147q0 -62 21.5 -82t101.5 -20h56v-111h-691v111h74q80 0 101.5 20t21.5 82v147h-557zM172 500h424v526h-4z" />
<glyph unicode="5" horiz-adv-x="1175" d="M66 326q0 85 53.5 139.5t138.5 54.5q72 0 122 -47t50 -119q0 -40 -13.5 -70t-33 -45t-38.5 -25t-32.5 -19t-13.5 -19q0 -37 55 -66.5t117 -29.5t109.5 21t77.5 57.5t49 91t26.5 115t7.5 135.5q0 148 -67.5 230.5t-177.5 82.5q-98 0 -222 -80q5 -25 5 -28q0 -41 -20.5 -66 t-61.5 -25q-74 0 -74 78q0 26 14.5 48.5t36.5 33.5q32 246 55 670q118 -16 207 -23q101 -8 240 -8q151 0 264 17q23 3 42.5 6.5t29.5 5.5t14 2q10 0 15.5 -12.5t2.5 -40.5t-18 -62q-45 -100 -149 -165.5t-256 -65.5q-151 0 -297 35l-29 -271q127 74 293 74q216 0 361 -128 t145 -327q0 -236 -150.5 -374t-413.5 -138q-91 0 -173 22.5t-148 65t-104.5 112t-38.5 157.5z" />
<glyph unicode="6" horiz-adv-x="1175" d="M55 610q0 191 48 348.5t133 263.5t202.5 164t255.5 58q179 0 283 -78t104 -197q0 -92 -50.5 -142t-141.5 -50q-79 0 -125.5 48.5t-46.5 115.5q0 41 12.5 68.5t25.5 46t13 34.5q0 23 -21 38t-63 15q-139 0 -206.5 -164t-69.5 -454l4 -4q104 147 307 147q176 0 288.5 -124 t112.5 -289q0 -96 -34 -182.5t-96.5 -154.5t-161 -108.5t-218.5 -40.5q-133 0 -239 49.5t-174.5 136.5t-105 203t-36.5 252zM420 399q0 -168 48 -248.5t126 -80.5q79 0 126.5 80.5t47.5 248.5q0 171 -43.5 250.5t-130.5 79.5q-174 0 -174 -330z" />
<glyph unicode="7" horiz-adv-x="1175" d="M92 838l72 606q36 -3 117.5 -10.5t124.5 -10.5q137 -10 243 -10q269 0 471 31v-80l-143 -315q-115 -253 -157 -427t-42 -389q0 -144 -50.5 -204t-149.5 -60q-189 0 -189 213q0 166 223 504l291 442q-70 -6 -233 -6q-40 0 -143 3t-171 3q-36 0 -52.5 -4t-33 -25.5 t-25.5 -56.5t-24 -108l-22 -109z" />
<glyph unicode="8" horiz-adv-x="1175" d="M55 332q0 119 73 203.5t183 119.5l4 4q-235 112 -235 357q0 104 42.5 187.5t113.5 135t160 78.5t186 27q214 0 337 -89.5t123 -230.5q0 -108 -58 -188.5t-148 -114.5v-4q64 -26 111.5 -57t88.5 -77t63 -111.5t23 -149.5q-2 -201 -155 -327t-396 -126q-244 0 -380 94.5 t-136 268.5zM317 334q0 -121 72.5 -192.5t194.5 -71.5q123 0 206.5 64t83.5 183q0 92 -58 141t-175 81l-190 63q-60 -37 -97 -107.5t-37 -160.5zM338 1122q0 -60 28.5 -104t109.5 -83t220 -67q60 32 92.5 101t32.5 143q0 102 -63.5 166.5t-167.5 64.5q-48 0 -91 -12.5 t-80 -37.5t-59 -69t-22 -102z" />
<glyph unicode="9" horiz-adv-x="1175" d="M55 958q0 96 34 182.5t96.5 154.5t161 108.5t218.5 40.5q133 0 239 -49.5t174.5 -136.5t105 -203t36.5 -252q0 -191 -48 -348.5t-133 -263.5t-202.5 -164t-255.5 -58q-179 0 -283 78t-104 197q0 92 51 142t142 50q79 0 125.5 -48.5t46.5 -115.5q0 -41 -12.5 -68.5 t-25.5 -45.5t-13 -35q0 -23 21 -38t63 -15q139 0 206.5 164t69.5 454l-4 4q-104 -147 -307 -147q-89 0 -165.5 35t-127.5 92.5t-80 132t-29 153.5zM408 1014q0 -171 43.5 -250.5t130.5 -79.5q174 0 174 330q0 168 -48 248.5t-126 80.5q-79 0 -126.5 -80.5t-47.5 -248.5z" />
<glyph unicode=":" horiz-adv-x="569" d="M90 164q0 79 57.5 136.5t137.5 57.5q79 0 136.5 -57t57.5 -137t-57.5 -137.5t-136.5 -57.5t-137 57.5t-58 137.5zM90 799q0 79 57.5 136.5t137.5 57.5q79 0 136.5 -57.5t57.5 -136.5q0 -80 -57.5 -137.5t-136.5 -57.5t-137 58t-58 137z" />
<glyph unicode=";" horiz-adv-x="569" d="M82 158q0 88 58.5 144t133.5 56q99 0 156 -71.5t57 -173.5q0 -139 -86 -259t-262 -231l-57 82q86 53 149.5 130t63.5 130q0 21 -19 21q-5 0 -19.5 -2t-20.5 -2q-64 0 -109 57.5t-45 118.5zM90 799q0 79 57.5 136.5t137.5 57.5q79 0 136.5 -57.5t57.5 -136.5 q0 -80 -57.5 -137.5t-136.5 -57.5t-137 58t-58 137z" />
<glyph unicode="&#x3c;" horiz-adv-x="1241" d="M102 422v192l1037 441v-221l-791 -316l791 -315v-221z" />
<glyph unicode="=" horiz-adv-x="1241" d="M102 211v221h1037v-221h-1037zM102 604v221h1037v-221h-1037z" />
<glyph unicode="&#x3e;" horiz-adv-x="1241" d="M102 -18v221l791 315l-791 316v221l1037 -441v-192z" />
<glyph unicode="?" horiz-adv-x="1024" d="M47 1200q0 58 29 112.5t84 99t143 71t197 26.5q129 0 225.5 -32.5t149 -85.5t77.5 -111.5t25 -120.5q0 -92 -36 -164.5t-120 -134.5l-155 -117q-91 -69 -116 -120.5t-28 -157.5h-110v90q0 63 22 126t53 116.5t62.5 107.5t53.5 119.5t22 132.5q0 242 -205 242 q-50 0 -83.5 -16t-33.5 -40q0 -15 11 -26.5t27.5 -22t32.5 -24.5t27 -41t11 -64q0 -63 -46.5 -112t-125.5 -49q-81 0 -137 52t-56 144zM272 164q0 79 57.5 136.5t137.5 57.5t137.5 -57.5t57.5 -136.5q0 -80 -58 -137.5t-137 -57.5t-137 57.5t-58 137.5z" />
<glyph unicode="@" horiz-adv-x="1529" d="M-4 739q0 157 61 299.5t165.5 245.5t250.5 164t309 61q119 0 231 -29.5t206.5 -87t165.5 -137t111 -185.5t40 -226q0 -104 -29 -202t-81 -177t-133.5 -126.5t-178.5 -47.5q-87 0 -139.5 43t-71.5 112h-4q-38 -70 -112 -112.5t-156 -42.5q-110 0 -177 81.5t-67 213.5 q0 91 30.5 187t83.5 177t135.5 133t176.5 52q152 0 203 -111h4l20 80h189l-142 -539q-12 -49 -12 -94q0 -30 21 -50t61 -20q87 0 155 128t68 290q0 156 -75.5 282.5t-205.5 197.5t-288 71q-89 0 -173 -26t-158.5 -80.5t-130 -131.5t-88 -187t-32.5 -240q0 -162 80 -299.5 t214.5 -217t289.5 -79.5q269 0 444 106l25 -125q-208 -121 -516 -121q-157 0 -299.5 61t-245.5 164t-164 245.5t-61 299.5zM608 627q0 -83 35.5 -132t83.5 -49q38 0 80.5 28.5t80 78.5t62.5 128.5t25 166.5q0 147 -107 147q-89 0 -174.5 -112.5t-85.5 -255.5z" />
<glyph unicode="A" horiz-adv-x="1554" d="M-39 0v111q80 7 146 65.5t124 194.5l486 1138h153l523 -1255q36 -88 71 -114t129 -29v-111h-716v111h63q45 0 66.5 13.5t21.5 45.5q0 27 -18 76l-80 209h-518q-62 -144 -62 -205q0 -139 205 -139v-111h-594zM463 578h414l-203 509z" />
<glyph unicode="B" horiz-adv-x="1593" d="M39 0v111h90q80 0 101.5 20t21.5 82v1053q0 62 -21.5 82t-101.5 20h-90v111h866q248 0 392.5 -94.5t144.5 -264.5q0 -142 -102 -225.5t-324 -118.5v-4q69 -6 134.5 -21.5t133 -45.5t117 -71t81 -103.5t31.5 -137.5q0 -64 -17.5 -120t-59 -107t-103.5 -87t-157.5 -57.5 t-214.5 -21.5h-922zM616 213q0 -43 8.5 -62.5t39.5 -29.5t96 -10q183 0 273.5 68.5t90.5 221.5q0 138 -73.5 218.5t-200.5 80.5h-234v-487zM616 811h136q325 0 325 301q0 132 -71 194t-211 62q-44 0 -69 -1.5t-47.5 -8.5t-32.5 -17t-18 -31.5t-10 -48t-2 -69.5v-381z" />
<glyph unicode="C" horiz-adv-x="1593" d="M80 739q0 215 102.5 392t280 277.5t391.5 100.5q226 0 375 -114l117 110h86l18 -583l-104 -11q-28 103 -67.5 188.5t-95.5 157t-133 112t-167 40.5q-213 0 -305.5 -169.5t-92.5 -518.5q0 -629 414 -629q180 0 302 121.5t159 325.5l121 -29q-60 -278 -221.5 -409.5 t-444.5 -131.5q-340 0 -537.5 208.5t-197.5 561.5z" />
<glyph unicode="D" horiz-adv-x="1705" d="M39 0v111h90q80 0 101.5 20t21.5 82v1053q0 62 -21.5 82t-101.5 20h-90v111h844q184 0 327.5 -54.5t233.5 -152.5t136 -228.5t46 -287.5q0 -366 -198 -561t-545 -195h-844zM616 221q0 -67 31 -88.5t133 -21.5q55 0 101.5 7t92.5 26t82 49t68 78t52.5 112t32.5 152t12 196 q0 156 -23 271t-61 184.5t-97 111t-122 56t-146 14.5q-53 0 -84.5 -6.5t-47 -24t-20 -37t-4.5 -55.5v-1024z" />
<glyph unicode="E" horiz-adv-x="1554" d="M39 0v111h90q80 0 101.5 20t21.5 82v1053q0 62 -21.5 82t-101.5 20h-90v111h1374l14 -537h-102q-28 95 -56.5 160t-69 118.5t-94 84t-127 47t-171.5 16.5q-118 0 -154.5 -28.5t-36.5 -116.5v-400h39q123 0 196.5 79t88.5 216h107l8 -719h-115q-5 141 -87 227.5t-212 86.5 h-25v-469q0 -47 5.5 -69.5t30 -39t67 -20.5t125.5 -4q214 0 325.5 104t178.5 338l102 -8l-23 -545h-1388z" />
<glyph unicode="F" horiz-adv-x="1478" d="M39 0v111h90q80 0 101.5 20t21.5 82v1053q0 62 -21.5 82t-101.5 20h-90v111h1374l14 -537h-102q-28 95 -56.5 160t-69 118.5t-94 84t-127 47t-171.5 16.5q-118 0 -154.5 -28.5t-36.5 -116.5v-400h39q123 0 196.5 79t88.5 216h107l8 -719h-115q-5 141 -87 227.5t-212 86.5 h-25v-500q0 -62 21.5 -82t101.5 -20h123v-111h-823z" />
<glyph unicode="G" horiz-adv-x="1705" d="M80 739q0 215 102.5 392t280 277.5t391.5 100.5q255 0 412 -110l118 102h89l18 -581l-102 -7l-50 136q-69 186 -183 273t-255 87q-416 0 -416 -707q0 -632 359 -632q88 0 149.5 27t96.5 80.5t50 124.5t15 169q0 63 -15 82.5t-67 19.5h-131v111h733v-111h-59 q-80 0 -101.5 -20t-21.5 -82v-502h-100l-105 203q-191 -203 -473 -203q-340 0 -537.5 208.5t-197.5 561.5z" />
<glyph unicode="H" horiz-adv-x="1781" d="M39 0v111h90q80 0 101.5 20t21.5 82v1053q0 62 -21.5 82t-101.5 20h-90v111h790v-111h-90q-80 0 -101.5 -20t-21.5 -82v-443h549v443q0 62 -21.5 82t-101.5 20h-90v111h791v-111h-90q-80 0 -101.5 -20t-21.5 -82v-1053q0 -62 21.5 -82t101.5 -20h90v-111h-791v111h90 q80 0 101.5 20t21.5 82v487h-549v-487q0 -62 21.5 -82t101.5 -20h90v-111h-790z" />
<glyph unicode="I" horiz-adv-x="909" d="M59 0v111h91q80 0 101 20t21 82v1053q0 62 -21 82t-101 20h-91v111h791v-111h-90q-80 0 -101.5 -20t-21.5 -82v-1053q0 -62 21.5 -82t101.5 -20h90v-111h-791z" />
<glyph unicode="J" horiz-adv-x="1327" d="M12 383q0 114 67 203.5t179 89.5q100 0 155.5 -59.5t55.5 -147.5q0 -82 -44 -140.5t-116 -58.5q-17 0 -46 7.5t-46 7.5q-37 0 -37 -41q0 -56 69 -104t157 -48q172 0 251.5 96t79.5 287v791q0 62 -21.5 82t-101.5 20h-90v111h791v-111h-90q-80 0 -101.5 -20t-21.5 -82 v-770q0 -113 -37.5 -208t-110 -166.5t-188.5 -112t-264 -40.5q-230 0 -360 111.5t-130 302.5z" />
<glyph unicode="K" horiz-adv-x="1669" d="M39 0v111h90q80 0 101.5 20t21.5 82v1053q0 62 -21.5 82t-101.5 20h-90v111h778v-111h-78q-80 0 -101.5 -20t-21.5 -82v-572l433 459q60 64 78 95t18 57q0 31 -34.5 47t-127.5 16h-43v111h690v-111q-190 0 -450 -270l-142 -148l478 -753q34 -54 60 -68t107 -18v-111h-743 v111h37q83 0 109 11t26 36q0 18 -25 63l-290 477l-181 -186v-299q0 -62 21.5 -82t101.5 -20h78v-111h-778z" />
<glyph unicode="L" horiz-adv-x="1478" d="M39 0v111h90q80 0 101.5 20t21.5 82v1053q0 62 -21.5 82t-101.5 20h-90v111h803v-111h-103q-80 0 -101.5 -20t-21.5 -82v-1016q0 -40 3.5 -60.5t14.5 -39t38.5 -25.5t67 -10.5t108.5 -3.5q110 0 192.5 29.5t139.5 88.5t93.5 138.5t59.5 187.5h107l-25 -555h-1376z" />
<glyph unicode="M" horiz-adv-x="2009" d="M20 0v111q113 0 166.5 56.5t53.5 201.5v897q0 62 -21.5 82t-101.5 20h-84v111h657l318 -897h4l303 897h674v-111h-97q-80 0 -101.5 -20t-21.5 -82v-1053q0 -62 21.5 -82t101.5 -20h97v-111h-797v111h90q80 0 101.5 20t21.5 82v1126h-4l-453 -1339h-102l-463 1323h-4v-928 q0 -144 43.5 -214t155.5 -70h28v-111h-586z" />
<glyph unicode="N" horiz-adv-x="1705" d="M10 0v111q73 3 116 16t68 44.5t33.5 76t8.5 119.5v890q-76 111 -226 111v111h529l792 -942v575q0 75 -8 119.5t-33 76t-68.5 44.5t-115.5 16v111h590v-111q-73 -3 -116 -16t-68 -44.5t-33.5 -76t-8.5 -119.5v-1132h-133l-958 1153h-4v-766q0 -75 8 -119.5t33 -76 t68.5 -44.5t115.5 -16v-111h-590z" />
<glyph unicode="O" horiz-adv-x="1705" d="M80 739q0 215 102.5 392t280 277.5t391.5 100.5q213 0 390 -100.5t279.5 -277.5t102.5 -392t-102.5 -392t-279.5 -277.5t-390 -100.5q-214 0 -391.5 100.5t-280 277.5t-102.5 392zM485 739q0 -669 369 -669q367 0 367 669q0 670 -367 670q-369 0 -369 -670z" />
<glyph unicode="P" horiz-adv-x="1554" d="M49 0v111h90q80 0 101.5 20t21.5 82v1053q0 62 -21.5 82t-101.5 20h-90v111h889q278 0 422.5 -109.5t144.5 -316.5q0 -422 -667 -422q-71 0 -211 4v-422q0 -62 21.5 -82t101.5 -20h102v-111h-803zM627 741h116q202 0 287.5 70.5t85.5 247.5q0 167 -72.5 238t-244.5 71 q-102 0 -137 -20t-35 -84v-523z" />
<glyph unicode="Q" horiz-adv-x="1705" d="M80 739q0 215 102.5 392t280 277.5t391.5 100.5q213 0 390 -100.5t279.5 -277.5t102.5 -392q0 -194 -101 -374.5t-255 -276.5q43 -150 93 -222.5t93 -72.5q38 0 63 46t25 118h111q-12 -167 -102 -255.5t-248 -88.5q-155 0 -242.5 87.5t-87.5 236.5q0 31 2 45 q-22 -5 -66 -9q-50 -4 -67 -4q-136 0 -257.5 41t-213 113.5t-158 169t-101 211t-34.5 235.5zM485 739q0 -98 12 -206t31 -175h4q14 106 100.5 169t196.5 63q121 0 210 -65t124 -183q23 47 40.5 179.5t17.5 217.5q0 670 -367 670q-369 0 -369 -670zM612 270q0 -80 58 -135 t168 -55q94 0 139 29q8 33 8 96q0 77 -15.5 133t-42 85.5t-56 42.5t-64.5 13q-94 0 -144.5 -57.5t-50.5 -151.5z" />
<glyph unicode="R" horiz-adv-x="1669" d="M39 0v111h90q80 0 101.5 20t21.5 82v1053q0 62 -21.5 82t-101.5 20h-90v111h926q141 0 245 -30.5t162.5 -85t85.5 -120.5t27 -145q0 -155 -124 -250t-317 -107v-4q81 -20 137 -51.5t94.5 -83.5t62.5 -117t44 -163q24 -114 41 -149.5t52 -35.5q40 0 62.5 43.5t31.5 153.5 h100q0 -187 -94 -276t-250 -89q-71 0 -128.5 18.5t-103.5 58t-71.5 107t-26.5 158.5q-1 170 -26.5 255t-80.5 116t-165 31h-107v-500q0 -62 21.5 -82t101.5 -20h103v-111h-803zM616 823h80q75 0 133.5 8t110 27.5t85 52t52.5 84t19 119.5q0 142 -71 198t-218 56 q-46 0 -74 -1.5t-51.5 -7t-34.5 -13.5t-19 -25t-10 -37t-2 -53v-408z" />
<glyph unicode="S" horiz-adv-x="1366" d="M104 563h101q32 -91 83 -174.5t119.5 -154t159 -112.5t189.5 -42q76 0 141 22.5t110.5 76.5t45.5 132q0 90 -52.5 140t-169.5 73l-208 41q-135 26 -237 75t-162.5 113t-90 136t-29.5 153q0 115 43.5 205.5t119 146.5t172.5 85.5t208 29.5q198 0 359 -112l110 100h88 l27 -541h-103q-30 86 -76.5 162.5t-109.5 140.5t-146 102t-175 38q-70 0 -132 -21t-106.5 -71t-44.5 -119q0 -74 50.5 -126.5t176.5 -78.5l254 -53q250 -53 364.5 -172t114.5 -312q0 -75 -22 -145.5t-66.5 -130.5t-107.5 -105t-150 -70.5t-188 -25.5q-252 0 -424 137 l-129 -126h-90z" />
<glyph unicode="T" horiz-adv-x="1478" d="M33 922l33 557h1347l33 -557h-100q-8 59 -24.5 119t-46 121.5t-67.5 108.5t-92.5 77t-116.5 30q-48 0 -62.5 -14.5t-14.5 -58.5v-1092q0 -62 21 -82t101 -20h115v-111h-840v111h115q80 0 101.5 20t21.5 82v1092q0 44 -15 58.5t-63 14.5q-77 0 -141 -44t-104.5 -115 t-65.5 -146t-35 -151h-100z" />
<glyph unicode="U" horiz-adv-x="1705" d="M29 1368v111h790v-111h-90q-80 0 -101.5 -20t-21.5 -82v-811q0 -73 19.5 -131.5t60.5 -104t112 -70t167 -24.5q164 0 265 97t101 288v598q0 77 -9 123t-34.5 77.5t-68.5 44.5t-115 15v111h586v-111q-126 0 -176 -68t-50 -208v-582q0 -123 -33.5 -218.5t-89 -155.5 t-134 -98.5t-160.5 -53.5t-177 -15q-315 0 -471.5 120t-156.5 366v811q0 62 -21.5 82t-101.5 20h-90z" />
<glyph unicode="V" horiz-adv-x="1554" d="M-39 1368v111h739v-111h-102q-36 0 -53 -9t-17 -34q0 -17 17 -70l336 -849l293 759q14 41 14 74q0 57 -52 93t-118 36h-33v111h608v-111q-183 -11 -293 -278l-456 -1110h-168l-500 1232q-41 103 -76 128t-139 28z" />
<glyph unicode="W" horiz-adv-x="2009" d="M14 1368v111h629v-111h-47q-76 0 -76 -53q0 -13 15 -64l245 -753h4l168 530l-73 223q-14 41 -23.5 62t-27 33.5t-34 15.5t-53.5 6v111h607v-111h-27q-58 0 -77 -10.5t-19 -40.5q0 -26 14 -70l221 -735h4l185 616q20 64 20 125q0 108 -186 115v111h512v-111 q-76 -10 -125 -67t-86 -177l-363 -1144h-145l-258 843h-4l-273 -843h-149l-414 1247q-17 52 -29 78.5t-31.5 41.5t-40 18t-63.5 3z" />
<glyph unicode="X" horiz-adv-x="1478" d="M-25 0v111q158 13 246 122l350 431l-438 624q-34 47 -62 60.5t-96 19.5v111h723v-111h-28q-67 -1 -91 -12.5t-24 -36.5q0 -23 29 -62l217 -309q93 106 145 175.5t64 95.5t12 45q0 104 -203 104v111h633v-111q-84 -3 -147 -40.5t-146 -139.5l-282 -354l413 -590 q56 -79 96.5 -104.5t116.5 -28.5v-111h-735v111h45q100 0 100 43q0 25 -36 75l-230 330q-156 -196 -190.5 -249t-34.5 -97q0 -46 42.5 -74t125.5 -28h57v-111h-672z" />
<glyph unicode="Y" horiz-adv-x="1478" d="M-25 1368v111h734v-111h-45q-64 0 -86.5 -10t-22.5 -37q0 -23 39 -84l268 -434l197 356q39 71 39 103q0 106 -195 106v111h600v-111q-74 -10 -124.5 -37.5t-91.5 -76t-95 -140.5l-270 -463v-438q0 -62 21 -82t101 -20h109v-111h-821v111h102q80 0 101.5 20t21.5 82v414 l-393 628q-45 72 -78 92.5t-111 20.5z" />
<glyph unicode="Z" horiz-adv-x="1366" d="M57 0v106l828 1256q-79 6 -187 6q-210 0 -316 -91t-175 -316h-98l24 518h1174v-107l-826 -1255q85 -6 207 -6q67 0 118 6.5t103 23.5t92.5 48.5t78 80.5t68.5 121t56 168h105l-33 -559h-1219z" />
<glyph unicode="[" horiz-adv-x="796" d="M172 -223v1732h522v-90h-276v-1552h276v-90h-522z" />
<glyph unicode="\" horiz-adv-x="1241" d="M250 1509h229l512 -1540h-229z" />
<glyph unicode="]" horiz-adv-x="796" d="M102 -133h277v1552h-277v90h523v-1732h-523v90z" />
<glyph unicode="^" horiz-adv-x="1241" d="M135 666l363 747h245l363 -747h-221l-264 526l-265 -526h-221z" />
<glyph unicode="_" horiz-adv-x="1024" d="M0 -154h1024v-102h-1024v102z" />
<glyph unicode="`" horiz-adv-x="681" d="M4 1401q0 45 31.5 76.5t83.5 31.5q39 0 73.5 -23.5t92.5 -92.5l225 -273h-125l-313 185q-32 18 -50 44.5t-18 51.5z" />
<glyph unicode="a" d="M82 205q0 95 57.5 161.5t205.5 122.5t405 99v104q0 109 -44 155t-145 46q-70 0 -108.5 -21t-38.5 -49q0 -13 25.5 -45t25.5 -65q0 -59 -45 -97t-123 -38q-63 0 -111.5 39.5t-48.5 115.5q0 113 124.5 186.5t340.5 73.5q463 0 463 -311v-414q0 -131 51 -131q17 0 41 15.5 t43 15.5q31 0 31 -33q0 -62 -68 -114t-149 -52q-76 0 -138.5 40t-82.5 102q-151 -142 -398 -142q-146 0 -229.5 59.5t-83.5 176.5zM420 250q0 -66 36 -103.5t99 -37.5q85 0 140 65.5t55 177.5v135q-188 -37 -259 -87.5t-71 -149.5z" />
<glyph unicode="b" horiz-adv-x="1327" d="M8 1386v101l484 22v-682h4q44 78 132.5 122t184.5 44q139 0 242.5 -69t155 -180.5t51.5 -247.5q0 -103 -35.5 -197t-101 -168t-167.5 -118t-225 -44q-107 0 -198.5 43t-153.5 127l-137 -170h-94q26 137 26 369v942q0 63 -21 84.5t-85 21.5h-62zM492 463q0 -198 50 -295.5 t158 -97.5q105 0 157 107.5t52 285.5q0 197 -50 294t-159 97q-105 0 -156.5 -107.5t-51.5 -283.5z" />
<glyph unicode="c" horiz-adv-x="1138" d="M66 481q0 151 77 269.5t203 180.5t275 62q64 0 123.5 -8t117.5 -28.5t100.5 -50.5t68.5 -78.5t26 -108.5q0 -81 -51 -128.5t-132 -47.5q-69 0 -119 43t-50 104q0 37 16.5 65.5t32.5 48.5t16 36q0 24 -34 38.5t-81 14.5q-105 0 -171 -96.5t-66 -286.5q0 -182 63.5 -291.5 t194.5 -109.5q212 0 299 249l98 -32q-52 -172 -167 -264.5t-290 -92.5q-130 0 -231 35.5t-159.5 89.5t-96 125.5t-50.5 134.5t-13 127z" />
<glyph unicode="d" horiz-adv-x="1366" d="M66 465q0 144 60 264.5t169 192t244 71.5q91 0 162.5 -32.5t134.5 -104.5v424q0 63 -21.5 84.5t-85.5 21.5h-86v101l508 22v-1280q0 -63 21 -84.5t85 -21.5h62v-100l-471 -23v156h-4q-49 -97 -138.5 -142t-191.5 -45q-192 0 -320 138t-128 358zM418 479q0 -74 11 -137 t34 -117t65 -85t99 -31t99 31t65 85t34 117t11 137q0 75 -11 139.5t-34 119t-65 85.5t-99 31t-99 -31t-65 -85.5t-34 -119t-11 -139.5z" />
<glyph unicode="e" horiz-adv-x="1175" d="M66 481q0 114 45 211t121.5 162t178 102t214.5 37q236 0 362 -144q123 -141 123 -371v-11h-692v-43q0 -147 77 -239.5t220 -92.5q188 0 303 232l92 -39q-71 -164 -189.5 -240t-295.5 -76q-113 0 -214.5 37t-178 102t-121.5 162t-45 211zM418 567h307q41 0 55.5 15 t14.5 57q0 126 -46 190t-128 64q-70 0 -117.5 -50.5t-66.5 -121t-19 -154.5z" />
<glyph unicode="f" horiz-adv-x="796" d="M23 850v123h180v33q0 227 127 365t311 138q137 0 220 -65.5t83 -159.5q0 -72 -45 -119t-119 -47q-58 0 -104.5 39.5t-46.5 97.5q0 31 10 55t22.5 35.5t22.5 21.5t10 15q0 12 -12 19.5t-29 7.5q-61 0 -98 -67t-37 -203v-166h260v-123h-260v-662q0 -60 18 -74t103 -14h72 v-100h-664v100h35q85 0 103 14t18 74v662h-180z" />
<glyph unicode="g" d="M61 -221q0 81 72 132t174 54l4 4q-217 39 -217 195q0 76 74.5 128t183.5 60v4q-126 33 -187 112t-61 177q0 104 65 184t175 122t246 42q70 0 145.5 -16t128.5 -45q57 75 125 119.5t139 44.5q61 0 104.5 -36t43.5 -97q0 -52 -32.5 -90.5t-94.5 -38.5q-48 0 -79.5 35 t-39.5 83q-15 -3 -39 -22t-43 -43q127 -90 127 -238t-122 -236.5t-330 -88.5h-111q-53 0 -84 -20t-31 -46q0 -29 20.5 -48t55.5 -20l406 -8q126 -4 200 -81t74 -177q0 -170 -154 -257t-428 -87q-510 0 -510 199zM324 -193q0 -55 61.5 -90.5t196.5 -35.5q309 0 309 133 q0 94 -166 94h-332q-29 -14 -49 -42.5t-20 -58.5zM432 653q0 -111 40.5 -175t117.5 -64t117.5 64t40.5 175q0 240 -158 240t-158 -240z" />
<glyph unicode="h" horiz-adv-x="1402" d="M35 1386v101l483 22v-702h4q50 89 137 137.5t203 48.5q156 0 247 -85t91 -261v-459q0 -60 18 -74t103 -14h35v-100h-615v100h23q85 0 103 14t18 74v439q0 84 -39 135t-111 51q-93 0 -155 -81t-62 -230v-314q0 -60 18 -74t103 -14h23v-100h-615v100h35q85 0 103 14t18 74 v1092q0 63 -21.5 84.5t-85.5 21.5h-61z" />
<glyph unicode="i" horiz-adv-x="757" d="M53 850v100l484 23v-785q0 -43 6.5 -59t30 -22.5t83.5 -6.5h35v-100h-626v100h34q85 0 103 14t18 74v555q0 64 -21 85.5t-85 21.5h-62zM203 1333q0 72 52 124t124 52t124 -52t52 -124t-52 -124t-124 -52t-124 52t-52 124z" />
<glyph unicode="j" horiz-adv-x="720" d="M-176 -211q0 65 44.5 108.5t111.5 43.5q56 0 95.5 -39.5t39.5 -87.5q0 -31 -9 -54t-20 -32.5t-20 -17t-9 -11.5q0 -18 54 -18q55 0 82.5 42.5t27.5 145.5v874q0 64 -21 85.5t-85 21.5h-86v100l508 23v-807q0 -105 -15 -192t-40 -146.5t-60.5 -105t-72 -72t-80 -43 t-80 -22t-74.5 -5.5q-124 0 -207.5 55.5t-83.5 153.5zM203 1333q0 72 52 124t124 52t124 -52t52 -124t-52 -124t-124 -52t-124 52t-52 124z" />
<glyph unicode="k" horiz-adv-x="1366" d="M35 1386v101l483 22v-1017l281 249q37 35 37 66q0 29 -33.5 47t-100.5 18h-18v101h600v-101q-83 0 -139 -19t-113 -67l-176 -145l356 -451q47 -59 74 -74.5t70 -15.5v-100h-619v100h37q68 0 68 47q0 25 -45 78l-176 215l-103 -88v-164q0 -60 18 -74t103 -14h23v-100h-615 v100h35q85 0 103 14t18 74v1092q0 63 -21.5 84.5t-85.5 21.5h-61z" />
<glyph unicode="l" horiz-adv-x="720" d="M35 1386v101l483 22v-1321q0 -60 18 -74t103 -14h35v-100h-627v100h35q85 0 103 14t18 74v1092q0 63 -21.5 84.5t-85.5 21.5h-61z" />
<glyph unicode="m" horiz-adv-x="1972" d="M35 850v100l475 23v-150h4q109 170 320 170q96 0 173 -44t115 -134q55 81 142 129.5t166 48.5q156 0 246.5 -85t90.5 -261v-459q0 -60 18 -74t103 -14h37v-100h-592v100h23q66 0 81 14t15 74v441q0 102 -33.5 143t-99.5 41q-27 0 -55.5 -13t-56.5 -41t-46 -82t-18 -126 v-363q0 -60 15 -74t81 -14h23v-100h-553v100h22q66 0 81 14t15 74v441q0 102 -33.5 143t-99.5 41q-27 0 -55.5 -13t-56.5 -41t-46 -82t-18 -126v-363q0 -60 15 -74t81 -14h23v-100h-590v100h35q85 0 103 14t18 74v555q0 63 -21.5 85t-85.5 22h-61z" />
<glyph unicode="n" horiz-adv-x="1402" d="M35 850v100l483 23v-166h4q50 89 137 137.5t203 48.5q156 0 247 -85t91 -261v-459q0 -60 18 -74t103 -14h35v-100h-615v100h23q85 0 103 14t18 74v439q0 84 -39 135t-111 51q-93 0 -155 -81t-62 -230v-314q0 -60 18 -74t103 -14h23v-100h-615v100h35q85 0 103 14t18 74 v555q0 63 -21.5 85t-85.5 22h-61z" />
<glyph unicode="o" d="M66 481q0 114 45 211t121.5 162t178 102t214.5 37q152 0 279 -62t204.5 -180.5t77.5 -269.5t-77.5 -269.5t-204.5 -180.5t-279 -62q-113 0 -214.5 37t-178 102t-121.5 162t-45 211zM418 481q0 -411 207 -411q209 0 209 411q0 412 -209 412q-207 0 -207 -412z" />
<glyph unicode="p" horiz-adv-x="1366" d="M35 850v100l483 23v-148h4q102 168 318 168q139 0 242.5 -69t154.5 -180.5t51 -247.5q0 -142 -59 -262t-167 -192.5t-243 -72.5q-89 0 -170.5 38t-126.5 102h-4v-340q0 -60 18 -74t103 -14h59v-101h-651v101h35q85 0 103 14t18 74v974q0 63 -21.5 85t-85.5 22h-61z M518 483q0 -176 54 -275t155 -99q72 0 120 51t68.5 132.5t20.5 190.5q0 176 -50.5 273.5t-135.5 97.5q-232 0 -232 -371z" />
<glyph unicode="q" horiz-adv-x="1327" d="M66 465q0 144 60 264.5t169 192t244 71.5q301 0 413 -168l133 168h97l-31 -401v-823q0 -60 18 -74t103 -14h35v-101h-652v101h60q85 0 103 14t18 74v340h-5q-46 -65 -130.5 -102.5t-186.5 -37.5q-192 0 -320 138t-128 358zM418 479q0 -74 11 -137t34 -117t65 -85t99 -31 t99 31t65 85t34 117t11 137q0 213 -53 313.5t-165 100.5q-101 0 -150.5 -107.5t-49.5 -306.5z" />
<glyph unicode="r" horiz-adv-x="1062" d="M35 850v100l454 23v-279h5q20 61 48.5 111.5t68.5 94.5t95 68.5t121 24.5q99 0 164.5 -53.5t65.5 -153.5q0 -70 -48 -120t-118 -50q-80 0 -121 48t-41 110q0 28 12.5 53.5t32.5 38.5l-4 4q-129 -35 -190.5 -201t-61.5 -481q0 -60 18 -74t103 -14h84v-100h-676v100h35 q85 0 103 14t18 74v555q0 63 -21.5 85t-85.5 22h-61z" />
<glyph unicode="s" horiz-adv-x="1024" d="M98 352h95q126 -282 366 -282q182 0 182 129q0 87 -172 123l-151 30q-154 31 -229.5 112.5t-75.5 201.5q0 104 55.5 179.5t144.5 111.5t199 36q135 0 248 -67l78 47h86l8 -318h-94q-134 238 -324 238q-82 0 -131 -33t-49 -94q0 -35 28 -57t91 -37l280 -72 q113 -29 177.5 -104.5t64.5 -180.5q0 -154 -111.5 -250t-316.5 -96q-78 0 -160 22.5t-117 47.5l-82 -39h-82z" />
<glyph unicode="t" horiz-adv-x="872" d="M43 850v111q146 17 226 115.5t112 305.5h123v-409h270v-123h-270v-582q0 -66 17.5 -98.5t64.5 -32.5q65 0 99 72t34 174h110q0 -414 -346 -414q-89 0 -147 21.5t-90.5 69t-45 110.5t-12.5 158v522h-145z" />
<glyph unicode="u" horiz-adv-x="1402" d="M35 850v100l483 23v-629q0 -194 144 -194q99 0 161 78.5t62 224.5v290q0 63 -21.5 85t-85.5 22h-61v100l483 23v-744q0 -63 21.5 -84.5t85.5 -21.5h61v-100l-471 -23v170h-4q-127 -201 -363 -201q-95 0 -161.5 30.5t-101.5 86.5t-49.5 120t-14.5 146v391q0 63 -21.5 85 t-85.5 22h-61z" />
<glyph unicode="v" d="M25 872v101h577v-101q-64 -4 -87 -15.5t-23 -33.5q0 -20 12 -47l231 -489l176 430q19 47 19 69q0 42 -36.5 58t-129.5 28v101h463v-101q-76 -12 -116.5 -53.5t-94.5 -161.5l-297 -677h-174l-381 784q-33 68 -56.5 85.5t-82.5 22.5z" />
<glyph unicode="w" horiz-adv-x="1820" d="M33 872v101h559v-101q-60 0 -80 -12.5t-20 -40.5q0 -22 10 -49l188 -451l152 345l-49 120q-22 54 -47 71t-84 17v101h567v-101q-121 0 -121 -49q0 -22 16 -65l189 -443l143 340q31 74 31 115q0 102 -131 102h-25v101h457v-101q-63 0 -103 -39t-79 -126l-330 -727h-156 l-219 540l-235 -540h-158l-338 792q-25 59 -56 79.5t-81 20.5z" />
<glyph unicode="x" d="M25 0v100q88 0 186 93l254 239l-289 344q-50 60 -78 78t-73 18v101h606v-101h-19q-71 0 -71 -34q0 -24 22 -52l121 -143l90 84q32 29 46 49.5t14 42.5q0 53 -91 53h-36v101h499v-101q-118 0 -217 -96l-233 -217l319 -383q39 -46 63.5 -59t88.5 -17v-100h-641v100h28 q32 0 51 13.5t19 33.5q0 25 -22 52l-125 147l-109 -106q-27 -27 -36 -42.5t-9 -33.5q0 -29 22.5 -46.5t63.5 -17.5h37v-100h-481z" />
<glyph unicode="y" d="M25 872v101h579v-101h-29q-46 0 -63.5 -12t-17.5 -41q0 -23 22 -69l217 -437l148 332q41 93 41 131q0 96 -131 96h-27v101h463v-101q-77 -10 -112 -42.5t-85 -139.5l-348 -751q-87 -187 -187.5 -273t-234.5 -86q-105 0 -169 60t-64 139q0 67 52.5 115.5t117.5 48.5 q71 0 114 -39.5t43 -100.5q0 -43 -18 -73q0 -11 14 -11q56 0 113 64.5t108 185.5l-432 844q-18 35 -38.5 46.5t-75.5 12.5z" />
<glyph unicode="z" horiz-adv-x="1099" d="M78 0v100l565 772h-192q-97 0 -149.5 -62t-88.5 -206h-98l22 369h885v-101l-561 -772h229q77 0 139.5 78t98.5 211h94l-21 -389h-923z" />
<glyph unicode="{" horiz-adv-x="796" d="M74 643q94 28 129 86t35 154v338q0 74 15.5 125t43.5 83.5t79.5 50t112 23.5t152.5 6v-65q-88 -12 -123 -58.5t-35 -146.5v-326q0 -110 -36 -176t-140 -92v-4q104 -26 140 -92t36 -176v-326q0 -100 35 -146.5t123 -58.5v-65q-92 0 -152.5 6.5t-112 24t-79.5 50 t-43.5 83.5t-15.5 125v337q0 96 -35 154t-129 86z" />
<glyph unicode="|" horiz-adv-x="1241" d="M510 -512v2048h221v-2048h-221z" />
<glyph unicode="}" horiz-adv-x="796" d="M156 -158q88 12 122.5 58.5t34.5 146.5v326q0 110 36 176t140 92v4q-104 26 -140 92t-36 176v326q0 100 -34.5 146.5t-122.5 58.5v65q92 0 152.5 -6t112 -23.5t79.5 -50t43.5 -83.5t15.5 -125v-338q0 -96 35 -154t129 -86q-94 -28 -129 -86t-35 -154v-337 q0 -74 -15.5 -125t-43.5 -83.5t-79.5 -50t-112 -24t-152.5 -6.5v65z" />
<glyph unicode="~" horiz-adv-x="1241" d="M147 524q41 85 106 130.5t144 45.5q101 0 244 -69q120 -57 155 -66q23 -6 44 -6q45 0 86.5 35t93.5 115l74 -197q-61 -90 -121.5 -132t-134.5 -42q-76 0 -217 72q-132 69 -228 69q-55 0 -95 -36t-77 -115z" />
<glyph unicode="&#xa1;" horiz-adv-x="606" d="M109 -221q0 71 20.5 156.5t45 161.5t46.5 217.5t25 310.5h114q3 -169 25 -310.5t47 -217.5t45.5 -161.5t20.5 -156.5q0 -89 -52.5 -144t-142.5 -55t-142 55t-52 144zM109 926q0 80 57.5 137t136.5 57q80 0 137.5 -57.5t57.5 -136.5q0 -80 -58 -137.5t-137 -57.5 t-136.5 57.5t-57.5 137.5z" />
<glyph unicode="&#xa2;" horiz-adv-x="1175" d="M66 481q0 151 77 269.5t203 180.5t275 62q133 0 231 -35l119 213h110l-141 -251q117 -72 117 -201q0 -81 -51 -128.5t-132 -47.5q-72 0 -120 45l-236 -416q60 -63 158 -63q212 0 299 249l98 -32q-52 -172 -167 -264.5t-290 -92.5q-112 0 -198 27l-115 -205h-110l135 238 q-60 28 -107 71t-75.5 89.5t-47 100t-25.5 99.5t-7 92zM418 510q0 -152 43 -244l246 434q1 26 11 49t21.5 36t21 27.5t9.5 27.5q0 24 -31.5 38.5t-83.5 14.5q-105 0 -171 -96.5t-66 -286.5z" />
<glyph unicode="&#xa3;" horiz-adv-x="1175" d="M33 154q0 90 61.5 143t153.5 53q66 0 153 -37q5 40 5 47q0 108 -82 281h-261v123h213q-53 125 -53 244q0 205 133 320.5t344 115.5q78 0 149 -20t129 -59t93 -103.5t35 -145.5q0 -88 -52.5 -143t-131.5 -55q-75 0 -121.5 44t-46.5 105q0 49 24 81t74 56q43 19 43 56 q0 31 -45.5 57t-108.5 26q-104 0 -153 -50.5t-49 -155.5q0 -48 14.5 -122t60.5 -251h318v-123h-301q8 -28 8 -55q0 -141 -74 -305q123 -50 240 -50q74 0 141 45.5t98 126.5l99 -26q-14 -82 -40.5 -150.5t-69 -128.5t-109.5 -94.5t-152 -34.5q-71 0 -139.5 29.5t-165.5 105.5 q-84 -135 -242 -135q-76 0 -134 49.5t-58 135.5zM133 158q0 -41 24 -64.5t70 -23.5q48 0 87.5 29t58.5 87q-32 28 -71.5 46t-68.5 18q-48 0 -74 -25.5t-26 -66.5z" />
<glyph unicode="&#xa4;" horiz-adv-x="1175" d="M55 299l117 117q-92 128 -92 291q0 162 92 290l-117 115l127 127l117 -115q129 90 289 90q163 0 289 -90l116 115l127 -127l-116 -117q92 -128 92 -288q0 -162 -92 -291l116 -117l-127 -127l-116 117q-129 -90 -289 -90t-289 90l-117 -117zM301 707q0 -141 78 -222.5 t209 -81.5t208.5 81t77.5 223q0 141 -77.5 222t-208.5 81q-132 0 -209.5 -81t-77.5 -222z" />
<glyph unicode="&#xa5;" horiz-adv-x="1175" d="M-20 1303v110h583v-110h-31q-92 0 -92 -43q0 -16 33 -78l213 -414l156 340q30 67 30 98q0 97 -153 97v110h477v-110q-87 -13 -136.5 -62.5t-111.5 -175.5l-176 -363h182v-110h-221v-137h221v-111h-221v-137q0 -58 17 -77t79 -19h89v-111h-654v111h82q62 0 79 19t17 77 v137h-215v111h215v137h-215v110h162l-258 498q-34 66 -61 84.5t-90 18.5z" />
<glyph unicode="&#xa6;" horiz-adv-x="1241" d="M510 -358v716h221v-716h-221zM510 666v716h221v-716h-221z" />
<glyph unicode="&#xa7;" horiz-adv-x="1024" d="M127 696q0 114 61 181t156 67h41v19q-97 82 -133.5 147t-36.5 137q0 110 79 186t206 76q143 0 219 -60t76 -138q0 -49 -31.5 -87t-87.5 -38q-51 0 -83 31t-32 75q0 30 13 50.5t28 29t28 19.5t13 24q0 20 -32 36.5t-93 16.5q-72 0 -121 -44t-49 -113q0 -28 16.5 -54 t78.5 -81t190 -152q145 -111 204.5 -205.5t59.5 -187.5q0 -112 -67.5 -177t-180.5 -65v-18q170 -125 170 -281q0 -88 -50 -150t-123.5 -89t-160.5 -27q-113 0 -199.5 58t-86.5 145q0 60 30.5 93.5t85.5 33.5q54 0 85.5 -31t31.5 -76q0 -33 -12.5 -54t-27.5 -27.5t-27.5 -16 t-12.5 -23.5q0 -27 41 -44t113 -17q67 0 112.5 41t45.5 108q0 44 -18 78t-66 74l-277 229q-110 90 -143 154.5t-33 146.5zM260 772q0 -47 44 -102.5t179 -165.5q91 -74 154 -74q56 0 91.5 35.5t35.5 93.5q0 38 -19.5 70t-72.5 84q-117 114 -181.5 152t-107.5 38 q-60 0 -91.5 -37.5t-31.5 -93.5z" />
<glyph unicode="&#xa8;" horiz-adv-x="681" d="M-25 1276q0 60 43 102.5t103 42.5t102.5 -42.5t42.5 -102.5t-42.5 -103t-102.5 -43t-103 43t-43 103zM416 1276q0 60 42.5 102.5t102.5 42.5t103 -42.5t43 -102.5t-43 -103t-103 -43t-102.5 43t-42.5 103z" />
<glyph unicode="&#xa9;" horiz-adv-x="1529" d="M-4 739q0 157 61 299.5t164 245.5t245.5 164t299.5 61t299.5 -61t245.5 -164t164 -245.5t61 -299.5t-61 -299.5t-164 -245.5t-245.5 -164t-299.5 -61t-299.5 61t-245.5 164t-164 245.5t-61 299.5zM188 739q0 -123 44 -232.5t120 -187.5t184 -123.5t230 -45.5 q163 0 295.5 77t207 212t74.5 300t-74.5 300t-207 212.5t-295.5 77.5t-296 -77.5t-207.5 -212.5t-74.5 -300zM332 748q0 195 131 314.5t358 119.5q76 0 144 -14t102.5 -31.5t34.5 -30.5v-207h-78q-22 89 -76.5 141t-134.5 52q-108 0 -178 -88t-70 -246q0 -186 68 -277.5 t186 -91.5q82 0 144.5 55t95.5 142h78l-33 -201q-5 -32 -102.5 -59t-227.5 -27q-206 0 -324 124.5t-118 324.5z" />
<glyph unicode="&#xaa;" horiz-adv-x="751" d="M2 975q0 55 38 93.5t140.5 72t282.5 59.5v57q0 64 -26.5 92.5t-80.5 28.5q-39 0 -75.5 -11t-36.5 -24q0 -7 17.5 -28.5t17.5 -44.5q0 -36 -32.5 -59t-94.5 -23q-51 0 -85 23.5t-34 70.5q0 72 84.5 117t244.5 45q75 0 132.5 -9t104.5 -29.5t72 -58t25 -90.5v-233 q0 -80 33 -80q11 0 26.5 9.5t28.5 9.5q21 0 21 -15q0 -46 -43.5 -80t-97.5 -34q-69 0 -114.5 23t-57.5 61q-100 -84 -273 -84q-104 0 -160.5 35.5t-56.5 105.5zM248 1010q0 -35 24 -55.5t64 -20.5q55 0 91 35.5t36 95.5v72q-123 -22 -169 -48.5t-46 -78.5z" />
<glyph unicode="&#xab;" horiz-adv-x="1024" d="M94 469v37q51 34 182.5 145.5t161.5 141.5q20 20 45 20q18 0 28.5 -11t10.5 -26q0 -17 -16 -44.5t-78 -115.5l-90 -129l90 -129q63 -89 78.5 -115.5t15.5 -43.5q0 -15 -10.5 -26t-28.5 -11q-25 0 -45 20q-30 30 -161.5 141.5t-182.5 145.5zM502 469v37q51 34 182.5 145.5 t161.5 141.5q20 20 45 20q18 0 28.5 -11t10.5 -26q0 -17 -16 -44.5t-78 -115.5l-91 -129l91 -129q63 -89 78.5 -115.5t15.5 -43.5q0 -15 -10.5 -26t-28.5 -11q-25 0 -45 20q-30 30 -161.5 141.5t-182.5 145.5z" />
<glyph unicode="&#xac;" horiz-adv-x="1241" d="M102 604v221h1037v-614h-221v393h-816z" />
<glyph unicode="&#xad;" horiz-adv-x="681" d="M86 356v262h510v-262h-510z" />
<glyph unicode="&#xae;" horiz-adv-x="1529" d="M-4 739q0 157 61 299.5t164 245.5t245.5 164t299.5 61t299.5 -61t245.5 -164t164 -245.5t61 -299.5t-61 -299.5t-164 -245.5t-245.5 -164t-299.5 -61t-299.5 61t-245.5 164t-164 245.5t-61 299.5zM188 739q0 -123 44 -232.5t120 -187.5t184 -123.5t230 -45.5 q163 0 295.5 77t207 212t74.5 300t-74.5 300t-207 212.5t-295.5 77.5t-296 -77.5t-207.5 -212.5t-74.5 -300zM385 348v66q68 8 83 20t15 64v497q0 52 -15 64t-83 20v66h459q107 0 177.5 -50t70.5 -151q0 -75 -48 -135.5t-126 -85.5l151 -240q46 -69 102 -69v-66h-188 q-30 0 -53 20t-49 64l-152 258h-53v-192q0 -52 15 -64t83 -20v-66h-389zM676 756h61q54 0 93.5 42t39.5 132q0 80 -37 114.5t-94 34.5h-63v-323z" />
<glyph unicode="&#xaf;" horiz-adv-x="681" d="M-12 1192v168h706v-168h-706z" />
<glyph unicode="&#xb0;" horiz-adv-x="819" d="M117 1151q0 121 85.5 207t207.5 86q121 0 206.5 -85.5t85.5 -207.5t-85.5 -207.5t-206.5 -85.5q-122 0 -207.5 86t-85.5 207zM272 1151q0 -57 40.5 -97t97.5 -40t97 40t40 97t-40 97t-97 40t-97.5 -40t-40.5 -97z" />
<glyph unicode="&#xb1;" horiz-adv-x="1241" d="M102 0v221h1037v-221h-1037zM102 547v221h408v268h221v-268h408v-221h-408v-268h-221v268h-408z" />
<glyph unicode="&#xb2;" horiz-adv-x="704" d="M-6 578v47q84 108 309 331q164 161 164 252q0 73 -36 115.5t-109 42.5q-58 0 -101 -29.5t-43 -60.5q0 -10 18 -18.5t39.5 -16.5t39.5 -32t18 -62t-35.5 -64t-89.5 -26q-68 0 -106.5 39.5t-38.5 111.5q0 95 97.5 165.5t248.5 70.5q84 0 161 -22.5t130 -70.5t53 -112 q0 -66 -40.5 -136t-129.5 -122q-175 -102 -301 -195v-4h315q36 0 51 13t21 49l18 86h70l-29 -352h-694z" />
<glyph unicode="&#xb3;" horiz-adv-x="704" d="M-6 768q0 48 35.5 79.5t95.5 31.5q56 0 93.5 -26t37.5 -65q0 -48 -33 -71q-33 -24 -33 -39q0 -21 37 -37t95 -16q64 0 103.5 52t39.5 134q0 45 -9 82t-36.5 65.5t-71.5 28.5q-18 0 -50 -4t-48 -4q-47 0 -47 43q0 47 53 47q12 0 45.5 -8t54.5 -8q41 0 71 41.5t30 134.5 q0 70 -36 109.5t-89 39.5q-51 0 -83 -16t-32 -33q0 -12 16 -25t32 -32.5t16 -46.5q0 -43 -32 -69t-93 -26q-63 0 -100.5 32t-37.5 83q0 79 87.5 139t250.5 60q168 0 257 -59.5t89 -153.5q0 -160 -229 -207v-4q254 -14 254 -217q0 -43 -18.5 -83.5t-59.5 -78t-118.5 -60 t-182.5 -22.5q-99 0 -176 20t-127.5 68.5t-50.5 120.5z" />
<glyph unicode="&#xb4;" horiz-adv-x="681" d="M172 1120l225 273q58 69 92.5 92.5t73.5 23.5q52 0 83.5 -31.5t31.5 -76.5q0 -25 -18 -51.5t-50 -44.5l-313 -185h-125z" />
<glyph unicode="&#xb5;" horiz-adv-x="1402" d="M35 850v100l483 23v-629q0 -194 144 -194q99 0 161 78.5t62 224.5v290q0 63 -21.5 85t-85.5 22h-61v100l483 23v-744q0 -63 21.5 -84.5t85.5 -21.5h61v-100l-471 -23v170h-4q-56 -88 -146 -144.5t-149 -56.5q-127 0 -180 113h-4q0 -69 27.5 -184.5t27.5 -155.5 q0 -69 -41 -115.5t-117 -46.5t-116.5 46.5t-40.5 115.5q0 28 24.5 182t24.5 293v526q0 63 -21.5 85t-85.5 22h-61z" />
<glyph unicode="&#xb6;" horiz-adv-x="1529" d="M197 1087q0 183 108.5 287.5t296.5 104.5h690v-66h-28q-69 0 -100 -35t-31 -102v-1219q0 -67 31 -102t100 -35h28v-65h-352v1501h-156v-1501h-352v65h29q69 0 100 35t31 102v639q-175 0 -285 101.5t-110 289.5zM369 1087q0 -126 64.5 -188.5t158.5 -62.5v503 q-103 0 -163 -62t-60 -190z" />
<glyph unicode="&#xb7;" horiz-adv-x="569" d="M109 586q0 72 52 124t124 52t124 -52t52 -124t-52 -124t-124 -52t-124 52t-52 124z" />
<glyph unicode="&#xb8;" horiz-adv-x="681" d="M35 -420l31 78q80 -27 122 -27q53 0 84 20.5t31 61.5q0 35 -21.5 56.5t-64.5 21.5q-24 0 -49 -10l-35 16l94 203h90l-61 -129q33 10 84 10q71 0 119.5 -41.5t48.5 -113.5q0 -86 -75 -135.5t-206 -49.5q-97 0 -192 39z" />
<glyph unicode="&#xb9;" horiz-adv-x="704" d="M63 1282v78q114 2 192 20.5t142 63.5h72v-727q0 -36 14.5 -49t65.5 -13h84v-77h-565v77h88q51 0 65.5 13t14.5 49v504q0 37 -14 49t-66 12h-93z" />
<glyph unicode="&#xba;" horiz-adv-x="751" d="M2 1139q0 135 108 220t267 85q157 0 265 -85t108 -220t-108 -220t-265 -85q-159 0 -267 85t-108 220zM248 1139q0 -240 127 -240q129 0 129 240q0 239 -129 239q-127 0 -127 -239z" />
<glyph unicode="&#xbb;" horiz-adv-x="1024" d="M94 199q0 17 15.5 43.5t78.5 115.5l91 129l-91 129q-62 88 -78 115.5t-16 44.5q0 15 10.5 26t28.5 11q25 0 45 -20q30 -30 161.5 -141.5t182.5 -145.5v-37q-51 -34 -182.5 -145.5t-161.5 -141.5q-20 -20 -45 -20q-18 0 -28.5 11t-10.5 26zM502 199q0 17 15.5 43.5 t78.5 115.5l90 129l-90 129q-62 88 -78 115.5t-16 44.5q0 15 10.5 26t28.5 11q25 0 45 -20q30 -30 161.5 -141.5t182.5 -145.5v-37q-51 -34 -182.5 -145.5t-161.5 -141.5q-20 -20 -45 -20q-18 0 -28.5 11t-10.5 26z" />
<glyph unicode="&#xbc;" horiz-adv-x="1763" d="M63 1282v78q114 2 192 20.5t142 63.5h72v-727q0 -36 14.5 -49t65.5 -13h84v-77h-565v77h88q51 0 65.5 13t14.5 49v504q0 37 -14 49t-66 12h-93zM389 -31l862 1475h156l-862 -1475h-156zM977 199v112l485 555h133q-10 -95 -10 -174v-393h131v-100h-131v-60 q0 -36 14.5 -48.5t65.5 -12.5h37v-78h-477v78h47q51 0 65.5 12.5t14.5 48.5v60h-375zM1077 299h275v317h-4z" />
<glyph unicode="&#xbd;" horiz-adv-x="1763" d="M63 1282v78q114 2 192 20.5t142 63.5h72v-727q0 -36 14.5 -49t65.5 -13h84v-77h-565v77h88q51 0 65.5 13t14.5 49v504q0 37 -14 49t-66 12h-93zM373 -31l862 1475h156l-863 -1475h-155zM993 0v47q84 108 310 332q163 160 163 252q0 73 -36 115t-109 42 q-58 0 -100.5 -29.5t-42.5 -60.5q0 -10 18 -18.5t39 -16.5t39 -32t18 -62t-35.5 -64t-89.5 -26q-68 0 -106.5 40t-38.5 112q0 95 97 165t249 70q85 0 161.5 -22t129.5 -70t53 -112q0 -66 -40.5 -136.5t-129.5 -122.5q-181 -106 -301 -194v-4h315q36 0 51 12.5t21 48.5l19 86 h69l-28 -352h-695z" />
<glyph unicode="&#xbe;" horiz-adv-x="1763" d="M31 768q0 48 35.5 79.5t95.5 31.5q56 0 93.5 -26t37.5 -65q0 -48 -33 -71q-33 -24 -33 -39q0 -21 36.5 -37t94.5 -16q64 0 104 52t40 134q0 45 -9 82t-36.5 65.5t-71.5 28.5q-18 0 -50 -4t-48 -4q-47 0 -47 43q0 47 53 47q12 0 45.5 -8t54.5 -8q41 0 71 41.5t30 134.5 q0 70 -36 109.5t-89 39.5q-51 0 -83 -16t-32 -33q0 -10 10 -20.5t21.5 -19.5t21.5 -26t10 -38q0 -43 -31.5 -69t-92.5 -26q-63 0 -100.5 32t-37.5 83q0 79 87.5 139t250.5 60q168 0 257 -59.5t89 -153.5q0 -160 -229 -207v-4q254 -14 254 -217q0 -43 -18.5 -83.5t-59.5 -78 t-118.5 -60t-182.5 -22.5q-99 0 -176 20t-127.5 68.5t-50.5 120.5zM455 -31l862 1475h156l-863 -1475h-155zM977 199v112l485 555h133q-10 -95 -10 -174v-393h131v-100h-131v-60q0 -36 14.5 -48.5t65.5 -12.5h37v-78h-477v78h47q51 0 65.5 12.5t14.5 48.5v60h-375zM1077 299 h275v317h-4z" />
<glyph unicode="&#xbf;" horiz-adv-x="1024" d="M47 -70q0 92 36 164.5t120 134.5l155 117q91 69 116 121t28 158h110v-90q0 -63 -22 -126t-53 -117t-62.5 -108t-53.5 -119.5t-22 -132.5q0 -241 205 -241q51 0 84 16t33 39q0 15 -11 26.5t-27.5 22t-32.5 24.5t-27 41t-11 64q0 63 46.5 112.5t125.5 49.5q81 0 137 -52 t56 -145q0 -58 -29 -112.5t-84 -99t-143 -71t-197 -26.5q-129 0 -225.5 32.5t-149 85.5t-77.5 111.5t-25 120.5zM362 926q0 79 57.5 136.5t137.5 57.5t137.5 -57.5t57.5 -136.5q0 -80 -58 -137.5t-137 -57.5t-137 57.5t-58 137.5z" />
<glyph unicode="&#xc0;" horiz-adv-x="1554" d="M-39 0v111q80 7 146 65.5t124 194.5l486 1138h153l523 -1255q36 -88 71 -114t129 -29v-111h-716v111h63q45 0 66.5 13.5t21.5 45.5q0 27 -18 76l-80 209h-518q-62 -144 -62 -205q0 -139 205 -139v-111h-594zM440 1866q0 45 31.5 76.5t83.5 31.5q39 0 73.5 -23.5 t92.5 -92.5l225 -273h-125l-313 184q-32 18 -50 45t-18 52zM463 578h414l-203 509z" />
<glyph unicode="&#xc1;" horiz-adv-x="1554" d="M-39 0v111q80 7 146 65.5t124 194.5l486 1138h153l523 -1255q36 -88 71 -114t129 -29v-111h-716v111h63q45 0 66.5 13.5t21.5 45.5q0 27 -18 76l-80 209h-518q-62 -144 -62 -205q0 -139 205 -139v-111h-594zM463 578h414l-203 509zM608 1585l226 273q58 70 92.5 93 t72.5 23q52 0 83.5 -31.5t31.5 -76.5q0 -26 -18 -52.5t-49 -44.5l-314 -184h-125z" />
<glyph unicode="&#xc2;" horiz-adv-x="1554" d="M-39 0v111q80 7 146 65.5t124 194.5l486 1138h153l523 -1255q36 -88 71 -114t129 -29v-111h-716v111h63q45 0 66.5 13.5t21.5 45.5q0 27 -18 76l-80 209h-518q-62 -144 -62 -205q0 -139 205 -139v-111h-594zM416 1585l252 365h221l252 -365h-140l-223 197l-223 -197h-139 zM463 578h414l-203 509z" />
<glyph unicode="&#xc3;" horiz-adv-x="1554" d="M-39 0v111q80 7 146 65.5t124 194.5l486 1138h153l523 -1255q36 -88 71 -114t129 -29v-111h-716v111h63q45 0 66.5 13.5t21.5 45.5q0 27 -18 76l-80 209h-518q-62 -144 -62 -205q0 -139 205 -139v-111h-594zM387 1626q14 75 44.5 136.5t83 104t116.5 42.5 q48 0 114.5 -27.5t127.5 -55.5t94 -28q37 0 59 22t41 76h100q-27 -124 -88 -201t-159 -77q-55 0 -108.5 16.5t-87.5 36.5t-72.5 36.5t-67.5 16.5q-73 0 -101 -98h-96zM463 578h414l-203 509z" />
<glyph unicode="&#xc4;" horiz-adv-x="1554" d="M-39 0v111q80 7 146 65.5t124 194.5l486 1138h153l523 -1255q36 -88 71 -114t129 -29v-111h-716v111h63q45 0 66.5 13.5t21.5 45.5q0 27 -18 76l-80 209h-518q-62 -144 -62 -205q0 -139 205 -139v-111h-594zM412 1741q0 60 42.5 102.5t102.5 42.5t102.5 -42.5 t42.5 -102.5t-42.5 -103t-102.5 -43t-102.5 43t-42.5 103zM463 578h414l-203 509zM852 1741q0 60 42.5 102.5t102.5 42.5t103 -42.5t43 -102.5t-43 -103t-103 -43t-102.5 43t-42.5 103z" />
<glyph unicode="&#xc5;" horiz-adv-x="1554" d="M-39 0v111q80 7 146 65.5t124 194.5l486 1138h153l523 -1255q36 -88 71 -114t129 -29v-111h-716v111h63q45 0 66.5 13.5t21.5 45.5q0 27 -18 76l-80 209h-518q-62 -144 -62 -205q0 -139 205 -139v-111h-594zM463 578h414l-203 509zM555 1802q0 92 64.5 156.5t156.5 64.5 t156.5 -64.5t64.5 -156.5t-64.5 -156.5t-156.5 -64.5t-156.5 64.5t-64.5 156.5zM666 1802q0 -46 32 -78t78 -32t78.5 32t32.5 78t-32.5 78.5t-78.5 32.5t-78 -32.5t-32 -78.5z" />
<glyph unicode="&#xc6;" horiz-adv-x="2009" d="M-59 0v111q63 13 102 49t90 135l395 778q42 82 55 119.5t13 67.5q0 52 -43 80t-119 28h-63v111h1558l19 -537h-101q-24 76 -46.5 130.5t-52 105.5t-65 84t-82.5 58t-107 36.5t-136 11.5q-88 0 -112.5 -22t-24.5 -95v-428q137 0 200 71.5t86 221.5h113v-717h-111 q-6 90 -33 158.5t-83 112t-136 43.5h-36v-482q0 -79 20 -99.5t105 -20.5q120 0 203.5 24t143.5 81t99.5 134t77.5 199l102 -6l-24 -543h-1305v111h90q80 0 101.5 20t21.5 82v328h-450q-98 -199 -121 -252t-23 -78q0 -100 156 -100h37v-111h-514zM467 664h389v665 q0 39 -22 39q-11 0 -17.5 -6t-13.5 -23z" />
<glyph unicode="&#xc7;" horiz-adv-x="1593" d="M80 739q0 215 102.5 392t280 277.5t391.5 100.5q226 0 375 -114l117 110h86l18 -583l-104 -11q-28 103 -67.5 188.5t-95.5 157t-133 112t-167 40.5q-213 0 -305.5 -169.5t-92.5 -518.5q0 -629 414 -629q180 0 302 121.5t159 325.5l121 -29q-57 -265 -207 -396.5 t-408 -140.5l-49 -102q33 10 84 10q71 0 119.5 -41.5t48.5 -113.5q0 -86 -75 -135.5t-206 -49.5q-97 0 -192 39l31 78q79 -27 123 -27q114 0 114 82q0 35 -21.5 56.5t-64.5 21.5q-24 0 -49 -10l-35 16l82 172q-323 13 -509.5 220.5t-186.5 549.5z" />
<glyph unicode="&#xc8;" horiz-adv-x="1554" d="M39 0v111h90q80 0 101.5 20t21.5 82v1053q0 62 -21.5 82t-101.5 20h-90v111h1374l14 -537h-102q-28 95 -56.5 160t-69 118.5t-94 84t-127 47t-171.5 16.5q-118 0 -154.5 -28.5t-36.5 -116.5v-400h39q123 0 196.5 79t88.5 216h107l8 -719h-115q-5 141 -87 227.5t-212 86.5 h-25v-469q0 -47 5.5 -69.5t30 -39t67 -20.5t125.5 -4q214 0 325.5 104t178.5 338l102 -8l-23 -545h-1388zM440 1866q0 45 31.5 76.5t83.5 31.5q39 0 73.5 -23.5t92.5 -92.5l225 -273h-125l-313 184q-32 18 -50 45t-18 52z" />
<glyph unicode="&#xc9;" horiz-adv-x="1554" d="M39 0v111h90q80 0 101.5 20t21.5 82v1053q0 62 -21.5 82t-101.5 20h-90v111h1374l14 -537h-102q-28 95 -56.5 160t-69 118.5t-94 84t-127 47t-171.5 16.5q-118 0 -154.5 -28.5t-36.5 -116.5v-400h39q123 0 196.5 79t88.5 216h107l8 -719h-115q-5 141 -87 227.5t-212 86.5 h-25v-469q0 -47 5.5 -69.5t30 -39t67 -20.5t125.5 -4q214 0 325.5 104t178.5 338l102 -8l-23 -545h-1388zM608 1585l226 273q58 70 92.5 93t72.5 23q52 0 83.5 -31.5t31.5 -76.5q0 -26 -18 -52.5t-49 -44.5l-314 -184h-125z" />
<glyph unicode="&#xca;" horiz-adv-x="1554" d="M39 0v111h90q80 0 101.5 20t21.5 82v1053q0 62 -21.5 82t-101.5 20h-90v111h1374l14 -537h-102q-28 95 -56.5 160t-69 118.5t-94 84t-127 47t-171.5 16.5q-118 0 -154.5 -28.5t-36.5 -116.5v-400h39q123 0 196.5 79t88.5 216h107l8 -719h-115q-5 141 -87 227.5t-212 86.5 h-25v-469q0 -47 5.5 -69.5t30 -39t67 -20.5t125.5 -4q214 0 325.5 104t178.5 338l102 -8l-23 -545h-1388zM416 1585l252 365h221l252 -365h-140l-223 197l-223 -197h-139z" />
<glyph unicode="&#xcb;" horiz-adv-x="1554" d="M39 0v111h90q80 0 101.5 20t21.5 82v1053q0 62 -21.5 82t-101.5 20h-90v111h1374l14 -537h-102q-28 95 -56.5 160t-69 118.5t-94 84t-127 47t-171.5 16.5q-118 0 -154.5 -28.5t-36.5 -116.5v-400h39q123 0 196.5 79t88.5 216h107l8 -719h-115q-5 141 -87 227.5t-212 86.5 h-25v-469q0 -47 5.5 -69.5t30 -39t67 -20.5t125.5 -4q214 0 325.5 104t178.5 338l102 -8l-23 -545h-1388zM412 1741q0 60 42.5 102.5t102.5 42.5t102.5 -42.5t42.5 -102.5t-42.5 -103t-102.5 -43t-102.5 43t-42.5 103zM852 1741q0 60 42.5 102.5t102.5 42.5t103 -42.5 t43 -102.5t-43 -103t-103 -43t-102.5 43t-42.5 103z" />
<glyph unicode="&#xcc;" horiz-adv-x="909" d="M59 0v111h91q80 0 101 20t21 82v1053q0 62 -21 82t-101 20h-91v111h791v-111h-90q-80 0 -101.5 -20t-21.5 -82v-1053q0 -62 21.5 -82t101.5 -20h90v-111h-791zM119 1866q0 45 31 76.5t83 31.5q39 0 73.5 -23.5t92.5 -92.5l226 -273h-125l-314 184q-31 18 -49 44.5 t-18 52.5z" />
<glyph unicode="&#xcd;" horiz-adv-x="909" d="M59 0v111h91q80 0 101 20t21 82v1053q0 62 -21 82t-101 20h-91v111h791v-111h-90q-80 0 -101.5 -20t-21.5 -82v-1053q0 -62 21.5 -82t101.5 -20h90v-111h-791zM287 1585l225 273q58 69 92.5 92.5t73.5 23.5q52 0 83.5 -31.5t31.5 -76.5q0 -25 -18 -52t-50 -45l-313 -184 h-125z" />
<glyph unicode="&#xce;" horiz-adv-x="909" d="M59 0v111h91q80 0 101 20t21 82v1053q0 62 -21 82t-101 20h-91v111h791v-111h-90q-80 0 -101.5 -20t-21.5 -82v-1053q0 -62 21.5 -82t101.5 -20h90v-111h-791zM94 1585l252 365h221l252 -365h-139l-223 197l-224 -197h-139z" />
<glyph unicode="&#xcf;" horiz-adv-x="909" d="M59 0v111h91q80 0 101 20t21 82v1053q0 62 -21 82t-101 20h-91v111h791v-111h-90q-80 0 -101.5 -20t-21.5 -82v-1053q0 -62 21.5 -82t101.5 -20h90v-111h-791zM90 1741q0 60 43 102.5t103 42.5t102.5 -42.5t42.5 -102.5t-42.5 -103t-102.5 -43t-103 43t-43 103zM530 1741 q0 60 43 102.5t103 42.5t102.5 -42.5t42.5 -102.5t-42.5 -103t-102.5 -43t-103 43t-43 103z" />
<glyph unicode="&#xd0;" horiz-adv-x="1705" d="M39 0v111h90q80 0 101.5 20t21.5 82v500h-213v110h213v443q0 62 -21.5 82t-101.5 20h-90v111h844q184 0 327.5 -54.5t233.5 -152.5t136 -228.5t46 -287.5q0 -366 -198 -561t-545 -195h-844zM616 221q0 -67 31 -88.5t133 -21.5q55 0 101.5 7t92.5 26t82 49t68 78t52.5 112 t32.5 152t12 196q0 156 -23 271t-61 184.5t-97 111t-122 56t-146 14.5q-53 0 -84.5 -6.5t-47 -24t-20 -37t-4.5 -55.5v-422h248v-110h-248v-492z" />
<glyph unicode="&#xd1;" horiz-adv-x="1705" d="M10 0v111q73 3 116 16t68 44.5t33.5 76t8.5 119.5v890q-76 111 -226 111v111h529l792 -942v575q0 75 -8 119.5t-33 76t-68.5 44.5t-115.5 16v111h590v-111q-73 -3 -116 -16t-68 -44.5t-33.5 -76t-8.5 -119.5v-1132h-133l-958 1153h-4v-766q0 -75 8 -119.5t33 -76 t68.5 -44.5t115.5 -16v-111h-590zM463 1626q14 75 44.5 136.5t83 104t116.5 42.5q48 0 114.5 -27.5t127 -55.5t93.5 -28q38 0 60 22t41 76h100q-27 -124 -88.5 -201t-159.5 -77q-55 0 -108.5 16.5t-87.5 36.5t-72.5 36.5t-67.5 16.5q-72 0 -100 -98h-96z" />
<glyph unicode="&#xd2;" horiz-adv-x="1705" d="M80 739q0 215 102.5 392t280 277.5t391.5 100.5q213 0 390 -100.5t279.5 -277.5t102.5 -392t-102.5 -392t-279.5 -277.5t-390 -100.5q-214 0 -391.5 100.5t-280 277.5t-102.5 392zM485 739q0 -669 369 -669q367 0 367 669q0 670 -367 670q-369 0 -369 -670zM516 1866 q0 45 31.5 76.5t83.5 31.5q39 0 73.5 -23.5t92.5 -92.5l225 -273h-125l-313 184q-32 18 -50 45t-18 52z" />
<glyph unicode="&#xd3;" horiz-adv-x="1705" d="M80 739q0 215 102.5 392t280 277.5t391.5 100.5q213 0 390 -100.5t279.5 -277.5t102.5 -392t-102.5 -392t-279.5 -277.5t-390 -100.5q-214 0 -391.5 100.5t-280 277.5t-102.5 392zM485 739q0 -669 369 -669q367 0 367 669q0 670 -367 670q-369 0 -369 -670zM684 1585 l225 273q58 69 92.5 92.5t73.5 23.5q52 0 83.5 -31.5t31.5 -76.5q0 -25 -18 -52t-50 -45l-313 -184h-125z" />
<glyph unicode="&#xd4;" horiz-adv-x="1705" d="M80 739q0 215 102.5 392t280 277.5t391.5 100.5q213 0 390 -100.5t279.5 -277.5t102.5 -392t-102.5 -392t-279.5 -277.5t-390 -100.5q-214 0 -391.5 100.5t-280 277.5t-102.5 392zM485 739q0 -669 369 -669q367 0 367 669q0 670 -367 670q-369 0 -369 -670zM492 1585 l251 365h222l252 -365h-140l-223 197l-223 -197h-139z" />
<glyph unicode="&#xd5;" horiz-adv-x="1705" d="M80 739q0 215 102.5 392t280 277.5t391.5 100.5q213 0 390 -100.5t279.5 -277.5t102.5 -392t-102.5 -392t-279.5 -277.5t-390 -100.5q-214 0 -391.5 100.5t-280 277.5t-102.5 392zM463 1626q14 75 44.5 136.5t83 104t116.5 42.5q48 0 114.5 -27.5t127 -55.5t93.5 -28 q38 0 60 22t41 76h100q-27 -124 -88.5 -201t-159.5 -77q-55 0 -108.5 16.5t-87.5 36.5t-72.5 36.5t-67.5 16.5q-72 0 -100 -98h-96zM485 739q0 -669 369 -669q367 0 367 669q0 670 -367 670q-369 0 -369 -670z" />
<glyph unicode="&#xd6;" horiz-adv-x="1705" d="M80 739q0 215 102.5 392t280 277.5t391.5 100.5q213 0 390 -100.5t279.5 -277.5t102.5 -392t-102.5 -392t-279.5 -277.5t-390 -100.5q-214 0 -391.5 100.5t-280 277.5t-102.5 392zM485 739q0 -669 369 -669q367 0 367 669q0 670 -367 670q-369 0 -369 -670zM487 1741 q0 60 43 102.5t103 42.5t102.5 -42.5t42.5 -102.5t-42.5 -103t-102.5 -43t-103 43t-43 103zM928 1741q0 60 42.5 102.5t102.5 42.5t103 -42.5t43 -102.5t-43 -103t-103 -43t-102.5 43t-42.5 103z" />
<glyph unicode="&#xd7;" horiz-adv-x="1241" d="M133 186l332 332l-332 332l156 156l332 -332l331 332l156 -156l-332 -332l332 -332l-156 -155l-331 331l-332 -331z" />
<glyph unicode="&#xd8;" horiz-adv-x="1705" d="M80 739q0 215 102.5 392t280 277.5t391.5 100.5q222 0 403 -108l134 186h133l-176 -248q130 -108 204 -263.5t74 -336.5q0 -215 -102.5 -392t-279.5 -277.5t-390 -100.5q-220 0 -403 111l-136 -189h-133l178 250q-131 103 -205.5 259t-74.5 339zM485 739q0 -225 41 -364 l609 852q-87 182 -281 182q-369 0 -369 -670zM571 250q88 -180 283 -180q367 0 367 669q0 232 -41 365z" />
<glyph unicode="&#xd9;" horiz-adv-x="1705" d="M29 1368v111h790v-111h-90q-80 0 -101.5 -20t-21.5 -82v-811q0 -73 19.5 -131.5t60.5 -104t112 -70t167 -24.5q164 0 265 97t101 288v598q0 77 -9 123t-34.5 77.5t-68.5 44.5t-115 15v111h586v-111q-126 0 -176 -68t-50 -208v-582q0 -123 -33.5 -218.5t-89 -155.5 t-134 -98.5t-160.5 -53.5t-177 -15q-315 0 -471.5 120t-156.5 366v811q0 62 -21.5 82t-101.5 20h-90zM516 1866q0 45 31.5 76.5t83.5 31.5q39 0 73.5 -23.5t92.5 -92.5l225 -273h-125l-313 184q-32 18 -50 45t-18 52z" />
<glyph unicode="&#xda;" horiz-adv-x="1705" d="M29 1368v111h790v-111h-90q-80 0 -101.5 -20t-21.5 -82v-811q0 -73 19.5 -131.5t60.5 -104t112 -70t167 -24.5q164 0 265 97t101 288v598q0 77 -9 123t-34.5 77.5t-68.5 44.5t-115 15v111h586v-111q-126 0 -176 -68t-50 -208v-582q0 -123 -33.5 -218.5t-89 -155.5 t-134 -98.5t-160.5 -53.5t-177 -15q-315 0 -471.5 120t-156.5 366v811q0 62 -21.5 82t-101.5 20h-90zM684 1585l225 273q58 69 92.5 92.5t73.5 23.5q52 0 83.5 -31.5t31.5 -76.5q0 -25 -18 -52t-50 -45l-313 -184h-125z" />
<glyph unicode="&#xdb;" horiz-adv-x="1705" d="M29 1368v111h790v-111h-90q-80 0 -101.5 -20t-21.5 -82v-811q0 -73 19.5 -131.5t60.5 -104t112 -70t167 -24.5q164 0 265 97t101 288v598q0 77 -9 123t-34.5 77.5t-68.5 44.5t-115 15v111h586v-111q-126 0 -176 -68t-50 -208v-582q0 -123 -33.5 -218.5t-89 -155.5 t-134 -98.5t-160.5 -53.5t-177 -15q-315 0 -471.5 120t-156.5 366v811q0 62 -21.5 82t-101.5 20h-90zM492 1585l251 365h222l252 -365h-140l-223 197l-223 -197h-139z" />
<glyph unicode="&#xdc;" horiz-adv-x="1705" d="M29 1368v111h790v-111h-90q-80 0 -101.5 -20t-21.5 -82v-811q0 -73 19.5 -131.5t60.5 -104t112 -70t167 -24.5q164 0 265 97t101 288v598q0 77 -9 123t-34.5 77.5t-68.5 44.5t-115 15v111h586v-111q-126 0 -176 -68t-50 -208v-582q0 -123 -33.5 -218.5t-89 -155.5 t-134 -98.5t-160.5 -53.5t-177 -15q-315 0 -471.5 120t-156.5 366v811q0 62 -21.5 82t-101.5 20h-90zM569 1741q0 60 43 102.5t103 42.5t102.5 -42.5t42.5 -102.5t-42.5 -103t-102.5 -43t-103 43t-43 103zM1010 1741q0 60 42.5 102.5t102.5 42.5t102.5 -42.5t42.5 -102.5 t-42.5 -103t-102.5 -43t-102.5 43t-42.5 103z" />
<glyph unicode="&#xdd;" horiz-adv-x="1478" d="M-25 1368v111h734v-111h-45q-64 0 -86.5 -10t-22.5 -37q0 -23 39 -84l268 -434l197 356q39 71 39 103q0 106 -195 106v111h600v-111q-74 -10 -124.5 -37.5t-91.5 -76t-95 -140.5l-270 -463v-438q0 -62 21 -82t101 -20h109v-111h-821v111h102q80 0 101.5 20t21.5 82v414 l-393 628q-45 72 -78 92.5t-111 20.5zM653 1585l226 273q58 70 92.5 93t72.5 23q52 0 83.5 -31.5t31.5 -76.5q0 -26 -18 -52.5t-49 -44.5l-314 -184h-125z" />
<glyph unicode="&#xde;" horiz-adv-x="1554" d="M49 0v111h90q80 0 101.5 20t21.5 82v1053q0 62 -21.5 82t-101.5 20h-90v111h791v-111h-90q-80 0 -101.5 -20t-21.5 -82v-62h311q278 0 422.5 -109.5t144.5 -316.5q0 -422 -667 -422q-71 0 -211 4v-147q0 -62 21.5 -82t101.5 -20h102v-111h-803zM627 467h116 q202 0 287.5 70t85.5 247q0 96 -17 155.5t-60 94.5t-104.5 47.5t-162.5 12.5q-83 0 -114 -20.5t-31 -84.5v-522z" />
<glyph unicode="&#xdf;" d="M-4 0v100h59q85 0 103 14t18 74v893q0 218 124 323t331 105q129 0 224 -27t149.5 -75t80 -108t25.5 -134q0 -97 -76.5 -187t-179.5 -112v-4q161 -42 247.5 -149.5t86.5 -280.5q0 -121 -49.5 -224.5t-151 -171t-235.5 -67.5q-70 0 -148 31v117q15 -19 46.5 -33t66.5 -14 q33 0 55.5 15.5t41 57.5t27.5 123.5t9 206.5q0 182 -32.5 259t-133.5 77q-8 0 -22 -1t-21 -1q-32 0 -41.5 7.5t-9.5 37.5q0 26 12.5 36.5t44.5 10.5q34 0 53 2t38.5 11t28.5 24.5t16.5 45.5t9.5 71t2 104q0 73 -11.5 123.5t-33.5 78t-50 39t-65 11.5q-85 0 -114 -65.5 t-29 -239.5v-1104h-482h-14z" />
<glyph unicode="&#xe0;" d="M82 205q0 95 57.5 161.5t205.5 122.5t405 99v104q0 109 -44 155t-145 46q-70 0 -108.5 -21t-38.5 -49q0 -13 25.5 -45t25.5 -65q0 -59 -45 -97t-123 -38q-63 0 -111.5 39.5t-48.5 115.5q0 113 124.5 186.5t340.5 73.5q463 0 463 -311v-414q0 -131 51 -131q17 0 41 15.5 t43 15.5q31 0 31 -33q0 -62 -68 -114t-149 -52q-76 0 -138.5 40t-82.5 102q-151 -142 -398 -142q-146 0 -229.5 59.5t-83.5 176.5zM289 1401q0 45 31 76.5t83 31.5q39 0 73.5 -23.5t92.5 -92.5l226 -273h-125l-314 185q-32 18 -49.5 44.5t-17.5 51.5zM420 250 q0 -66 36 -103.5t99 -37.5q85 0 140 65.5t55 177.5v135q-188 -37 -259 -87.5t-71 -149.5z" />
<glyph unicode="&#xe1;" d="M82 205q0 95 57.5 161.5t205.5 122.5t405 99v104q0 109 -44 155t-145 46q-70 0 -108.5 -21t-38.5 -49q0 -13 25.5 -45t25.5 -65q0 -59 -45 -97t-123 -38q-63 0 -111.5 39.5t-48.5 115.5q0 113 124.5 186.5t340.5 73.5q463 0 463 -311v-414q0 -131 51 -131q17 0 41 15.5 t43 15.5q31 0 31 -33q0 -62 -68 -114t-149 -52q-76 0 -138.5 40t-82.5 102q-151 -142 -398 -142q-146 0 -229.5 59.5t-83.5 176.5zM420 250q0 -66 36 -103.5t99 -37.5q85 0 140 65.5t55 177.5v135q-188 -37 -259 -87.5t-71 -149.5zM457 1120l225 273q58 69 92.5 92.5 t73.5 23.5q52 0 83.5 -31.5t31.5 -76.5q0 -25 -18 -51.5t-50 -44.5l-313 -185h-125z" />
<glyph unicode="&#xe2;" d="M82 205q0 95 57.5 161.5t205.5 122.5t405 99v104q0 109 -44 155t-145 46q-70 0 -108.5 -21t-38.5 -49q0 -13 25.5 -45t25.5 -65q0 -59 -45 -97t-123 -38q-63 0 -111.5 39.5t-48.5 115.5q0 113 124.5 186.5t340.5 73.5q463 0 463 -311v-414q0 -131 51 -131q17 0 41 15.5 t43 15.5q31 0 31 -33q0 -62 -68 -114t-149 -52q-76 0 -138.5 40t-82.5 102q-151 -142 -398 -142q-146 0 -229.5 59.5t-83.5 176.5zM264 1120l252 365h221l252 -365h-139l-223 197l-224 -197h-139zM420 250q0 -66 36 -103.5t99 -37.5q85 0 140 65.5t55 177.5v135 q-188 -37 -259 -87.5t-71 -149.5z" />
<glyph unicode="&#xe3;" d="M82 205q0 95 57.5 161.5t205.5 122.5t405 99v104q0 109 -44 155t-145 46q-70 0 -108.5 -21t-38.5 -49q0 -13 25.5 -45t25.5 -65q0 -59 -45 -97t-123 -38q-63 0 -111.5 39.5t-48.5 115.5q0 113 124.5 186.5t340.5 73.5q463 0 463 -311v-414q0 -131 51 -131q17 0 41 15.5 t43 15.5q31 0 31 -33q0 -62 -68 -114t-149 -52q-76 0 -138.5 40t-82.5 102q-151 -142 -398 -142q-146 0 -229.5 59.5t-83.5 176.5zM236 1161q23 118 86 200.5t157 82.5q48 0 114.5 -28t127.5 -55.5t94 -27.5q37 0 59 22.5t41 76.5h101q-27 -124 -88.5 -201.5t-159.5 -77.5 q-55 0 -108.5 16.5t-87.5 37t-72.5 37t-67.5 16.5q-72 0 -100 -99h-96zM420 250q0 -66 36 -103.5t99 -37.5q85 0 140 65.5t55 177.5v135q-188 -37 -259 -87.5t-71 -149.5z" />
<glyph unicode="&#xe4;" d="M82 205q0 95 57.5 161.5t205.5 122.5t405 99v104q0 109 -44 155t-145 46q-70 0 -108.5 -21t-38.5 -49q0 -13 25.5 -45t25.5 -65q0 -59 -45 -97t-123 -38q-63 0 -111.5 39.5t-48.5 115.5q0 113 124.5 186.5t340.5 73.5q463 0 463 -311v-414q0 -131 51 -131q17 0 41 15.5 t43 15.5q31 0 31 -33q0 -62 -68 -114t-149 -52q-76 0 -138.5 40t-82.5 102q-151 -142 -398 -142q-146 0 -229.5 59.5t-83.5 176.5zM260 1276q0 60 43 102.5t103 42.5t102.5 -42.5t42.5 -102.5t-42.5 -103t-102.5 -43t-103 43t-43 103zM420 250q0 -66 36 -103.5t99 -37.5 q85 0 140 65.5t55 177.5v135q-188 -37 -259 -87.5t-71 -149.5zM700 1276q0 60 43 102.5t103 42.5t102.5 -42.5t42.5 -102.5t-42.5 -103t-102.5 -43t-103 43t-43 103z" />
<glyph unicode="&#xe5;" d="M82 205q0 95 57.5 161.5t205.5 122.5t405 99v104q0 109 -44 155t-145 46q-70 0 -108.5 -21t-38.5 -49q0 -13 25.5 -45t25.5 -65q0 -59 -45 -97t-123 -38q-63 0 -111.5 39.5t-48.5 115.5q0 113 124.5 186.5t340.5 73.5q463 0 463 -311v-414q0 -131 51 -131q17 0 41 15.5 t43 15.5q31 0 31 -33q0 -62 -68 -114t-149 -52q-76 0 -138.5 40t-82.5 102q-151 -142 -398 -142q-146 0 -229.5 59.5t-83.5 176.5zM403 1337q0 92 65 157t157 65t156.5 -65t64.5 -157t-64.5 -156.5t-156.5 -64.5t-157 64.5t-65 156.5zM420 250q0 -66 36 -103.5t99 -37.5 q85 0 140 65.5t55 177.5v135q-188 -37 -259 -87.5t-71 -149.5zM514 1337q0 -46 32.5 -78t78.5 -32t78 32t32 78t-32 78.5t-78 32.5t-78.5 -32.5t-32.5 -78.5z" />
<glyph unicode="&#xe6;" horiz-adv-x="1781" d="M66 205q0 95 57 161.5t205 122.5t405 99v104q0 109 -43.5 155t-144.5 46q-70 0 -109 -21.5t-39 -48.5q0 -13 13 -28.5t26 -36t13 -45.5q0 -59 -45 -97t-123 -38q-63 0 -111.5 39.5t-48.5 115.5q0 113 124.5 186.5t340.5 73.5q100 0 191.5 -32t154.5 -95q54 64 135 95.5 t164 31.5q236 0 362 -144t123 -382h-667v-43q0 -146 74 -239t204 -93q182 0 297 232l92 -39q-71 -164 -189.5 -240t-295.5 -76q-120 0 -231.5 49.5t-178.5 139.5q-70 -91 -197.5 -140t-244.5 -49q-146 0 -229.5 59.5t-83.5 176.5zM403 250q0 -66 36.5 -103.5t99.5 -37.5 q85 0 139.5 65.5t54.5 177.5v135q-188 -37 -259 -87.5t-71 -149.5zM1049 567h282q41 0 55.5 15t14.5 57q0 125 -45.5 189.5t-124.5 64.5q-86 0 -134 -92.5t-48 -233.5z" />
<glyph unicode="&#xe7;" horiz-adv-x="1138" d="M66 481q0 151 77 269.5t203 180.5t275 62q64 0 123.5 -8t117.5 -28.5t100.5 -50.5t68.5 -78.5t26 -108.5q0 -81 -51 -128.5t-132 -47.5q-69 0 -119 43t-50 104q0 37 16.5 65.5t32.5 48.5t16 36q0 24 -34 38.5t-81 14.5q-105 0 -171 -96.5t-66 -286.5q0 -182 63.5 -291.5 t194.5 -109.5q212 0 299 249l98 -32q-51 -169 -163 -261.5t-283 -95.5l-47 -98q33 10 84 10q71 0 119 -41.5t48 -113.5q0 -86 -74.5 -135.5t-205.5 -49.5q-98 0 -193 39l31 78q79 -27 123 -27q53 0 84 20.5t31 61.5q0 35 -21.5 56.5t-64.5 21.5q-24 0 -49 -10l-35 16l82 172 q-111 11 -197.5 51t-137 93.5t-83 121.5t-44 127.5t-11.5 118.5z" />
<glyph unicode="&#xe8;" horiz-adv-x="1175" d="M66 481q0 114 45 211t121.5 162t178 102t214.5 37q233 0 359 -141t126 -375v-10h-692v-43q0 -147 77 -239.5t220 -92.5q188 0 303 232l92 -39q-71 -164 -189.5 -240t-295.5 -76q-113 0 -214.5 37t-178 102t-121.5 162t-45 211zM252 1401q0 45 31.5 76.5t83.5 31.5 q38 0 72.5 -23t92.5 -93l226 -273h-125l-314 185q-32 18 -49.5 44.5t-17.5 51.5zM418 567h307q41 0 55.5 15t14.5 57q0 126 -46 190t-128 64q-70 0 -117.5 -50.5t-66.5 -121t-19 -154.5z" />
<glyph unicode="&#xe9;" horiz-adv-x="1175" d="M66 481q0 114 45 211t121.5 162t178 102t214.5 37q233 0 359 -141t126 -375v-10h-692v-43q0 -147 77 -239.5t220 -92.5q188 0 303 232l92 -39q-71 -164 -189.5 -240t-295.5 -76q-113 0 -214.5 37t-178 102t-121.5 162t-45 211zM418 567h307q41 0 55.5 15t14.5 57 q0 126 -46 190t-128 64q-70 0 -117.5 -50.5t-66.5 -121t-19 -154.5zM420 1120l225 273q58 69 92.5 92.5t73.5 23.5q52 0 83.5 -31.5t31.5 -76.5q0 -25 -18 -51.5t-50 -44.5l-313 -185h-125z" />
<glyph unicode="&#xea;" horiz-adv-x="1175" d="M66 481q0 114 45 211t121.5 162t178 102t214.5 37q233 0 359 -141t126 -375v-10h-692v-43q0 -147 77 -239.5t220 -92.5q188 0 303 232l92 -39q-71 -164 -189.5 -240t-295.5 -76q-113 0 -214.5 37t-178 102t-121.5 162t-45 211zM227 1120l252 365h221l252 -365h-139 l-223 197l-223 -197h-140zM418 567h307q41 0 55.5 15t14.5 57q0 126 -46 190t-128 64q-70 0 -117.5 -50.5t-66.5 -121t-19 -154.5z" />
<glyph unicode="&#xeb;" horiz-adv-x="1175" d="M66 481q0 114 45 211t121.5 162t178 102t214.5 37q233 0 359 -141t126 -375v-10h-692v-43q0 -147 77 -239.5t220 -92.5q188 0 303 232l92 -39q-71 -164 -189.5 -240t-295.5 -76q-113 0 -214.5 37t-178 102t-121.5 162t-45 211zM223 1276q0 60 43 102.5t103 42.5 t102.5 -42.5t42.5 -102.5t-42.5 -103t-102.5 -43t-103 43t-43 103zM418 567h307q41 0 55.5 15t14.5 57q0 126 -46 190t-128 64q-70 0 -117.5 -50.5t-66.5 -121t-19 -154.5zM664 1276q0 60 42.5 102.5t102.5 42.5t102.5 -42.5t42.5 -102.5t-42.5 -103t-102.5 -43t-102.5 43 t-42.5 103z" />
<glyph unicode="&#xec;" horiz-adv-x="757" d="M43 1401q0 45 31.5 76.5t83.5 31.5q39 0 73.5 -23.5t92.5 -92.5l225 -273h-125l-313 185q-32 18 -50 44.5t-18 51.5zM53 850v100l484 23v-785q0 -43 6.5 -59t30 -22.5t83.5 -6.5h35v-100h-626v100h34q85 0 103 14t18 74v555q0 64 -21 85.5t-85 21.5h-62z" />
<glyph unicode="&#xed;" horiz-adv-x="757" d="M53 850v100l484 23v-785q0 -43 6.5 -59t30 -22.5t83.5 -6.5h35v-100h-626v100h34q85 0 103 14t18 74v555q0 64 -21 85.5t-85 21.5h-62zM211 1120l225 273q58 69 92.5 92.5t73.5 23.5q52 0 83.5 -31.5t31.5 -76.5q0 -25 -18 -51.5t-50 -44.5l-313 -185h-125z" />
<glyph unicode="&#xee;" horiz-adv-x="757" d="M18 1120l252 365h222l251 -365h-139l-223 197l-223 -197h-140zM53 850v100l484 23v-785q0 -43 6.5 -59t30 -22.5t83.5 -6.5h35v-100h-626v100h34q85 0 103 14t18 74v555q0 64 -21 85.5t-85 21.5h-62z" />
<glyph unicode="&#xef;" horiz-adv-x="757" d="M14 1276q0 60 43 102.5t103 42.5t102.5 -42.5t42.5 -102.5t-42.5 -103t-102.5 -43t-103 43t-43 103zM53 850v100l484 23v-785q0 -43 6.5 -59t30 -22.5t83.5 -6.5h35v-100h-626v100h34q85 0 103 14t18 74v555q0 64 -21 85.5t-85 21.5h-62zM455 1276q0 60 42.5 102.5 t102.5 42.5t102.5 -42.5t42.5 -102.5t-42.5 -103t-102.5 -43t-102.5 43t-42.5 103z" />
<glyph unicode="&#xf0;" d="M66 481q0 114 45 211t121.5 162t178 102t214.5 37q130 0 206 -65l5 4q-53 186 -179 303l-200 -109l-66 91l170 92q-125 82 -299 100v100q240 0 445 -120l211 114l65 -90l-172 -94q172 -133 273.5 -324t101.5 -397q0 -307 -144.5 -468t-416.5 -161q-113 0 -214.5 37 t-178 102t-121.5 162t-45 211zM418 481q0 -411 207 -411q209 0 209 411q0 412 -209 412q-207 0 -207 -412z" />
<glyph unicode="&#xf1;" horiz-adv-x="1402" d="M35 850v100l483 23v-166h4q50 89 137 137.5t203 48.5q156 0 247 -85t91 -261v-459q0 -60 18 -74t103 -14h35v-100h-615v100h23q85 0 103 14t18 74v439q0 84 -39 135t-111 51q-93 0 -155 -81t-62 -230v-314q0 -60 18 -74t103 -14h23v-100h-615v100h35q85 0 103 14t18 74 v555q0 63 -21.5 85t-85.5 22h-61zM311 1161q14 75 44.5 136.5t83 104t116.5 42.5q48 0 114.5 -28t127.5 -55.5t94 -27.5q37 0 59 22.5t41 76.5h101q-27 -124 -88.5 -201.5t-159.5 -77.5q-55 0 -108.5 16.5t-87.5 37t-72.5 37t-67.5 16.5q-72 0 -100 -99h-97z" />
<glyph unicode="&#xf2;" d="M66 481q0 114 45 211t121.5 162t178 102t214.5 37q152 0 279 -62t204.5 -180.5t77.5 -269.5t-77.5 -269.5t-204.5 -180.5t-279 -62q-113 0 -214.5 37t-178 102t-121.5 162t-45 211zM289 1401q0 45 31 76.5t83 31.5q39 0 73.5 -23.5t92.5 -92.5l226 -273h-125l-314 185 q-32 18 -49.5 44.5t-17.5 51.5zM418 481q0 -411 207 -411q209 0 209 411q0 412 -209 412q-207 0 -207 -412z" />
<glyph unicode="&#xf3;" d="M66 481q0 114 45 211t121.5 162t178 102t214.5 37q152 0 279 -62t204.5 -180.5t77.5 -269.5t-77.5 -269.5t-204.5 -180.5t-279 -62q-113 0 -214.5 37t-178 102t-121.5 162t-45 211zM418 481q0 -411 207 -411q209 0 209 411q0 412 -209 412q-207 0 -207 -412zM457 1120 l225 273q58 69 92.5 92.5t73.5 23.5q52 0 83.5 -31.5t31.5 -76.5q0 -25 -18 -51.5t-50 -44.5l-313 -185h-125z" />
<glyph unicode="&#xf4;" d="M66 481q0 114 45 211t121.5 162t178 102t214.5 37q152 0 279 -62t204.5 -180.5t77.5 -269.5t-77.5 -269.5t-204.5 -180.5t-279 -62q-113 0 -214.5 37t-178 102t-121.5 162t-45 211zM264 1120l252 365h221l252 -365h-139l-223 197l-224 -197h-139zM418 481 q0 -411 207 -411q209 0 209 411q0 412 -209 412q-207 0 -207 -412z" />
<glyph unicode="&#xf5;" d="M66 481q0 114 45 211t121.5 162t178 102t214.5 37q152 0 279 -62t204.5 -180.5t77.5 -269.5t-77.5 -269.5t-204.5 -180.5t-279 -62q-113 0 -214.5 37t-178 102t-121.5 162t-45 211zM236 1161q23 118 86 200.5t157 82.5q48 0 114.5 -28t127.5 -55.5t94 -27.5q37 0 59 22.5 t41 76.5h101q-27 -124 -88.5 -201.5t-159.5 -77.5q-55 0 -108.5 16.5t-87.5 37t-72.5 37t-67.5 16.5q-72 0 -100 -99h-96zM418 481q0 -411 207 -411q209 0 209 411q0 412 -209 412q-207 0 -207 -412z" />
<glyph unicode="&#xf6;" d="M66 481q0 114 45 211t121.5 162t178 102t214.5 37q152 0 279 -62t204.5 -180.5t77.5 -269.5t-77.5 -269.5t-204.5 -180.5t-279 -62q-113 0 -214.5 37t-178 102t-121.5 162t-45 211zM260 1276q0 60 43 102.5t103 42.5t102.5 -42.5t42.5 -102.5t-42.5 -103t-102.5 -43 t-103 43t-43 103zM418 481q0 -411 207 -411q209 0 209 411q0 412 -209 412q-207 0 -207 -412zM700 1276q0 60 43 102.5t103 42.5t102.5 -42.5t42.5 -102.5t-42.5 -103t-102.5 -43t-103 43t-43 103z" />
<glyph unicode="&#xf7;" horiz-adv-x="1241" d="M102 408v221h1037v-221h-1037zM444 94q0 72 52.5 124t124.5 52t124 -52t52 -124t-52 -124t-124 -52t-124.5 52t-52.5 124zM444 942q0 72 52.5 124t124.5 52t124 -52t52 -124t-52 -124t-124 -52t-124.5 52t-52.5 124z" />
<glyph unicode="&#xf8;" d="M66 481q0 114 45 211t121.5 162t178 102t214.5 37q115 0 221 -39l127 220h110l-149 -259q118 -68 185 -180t67 -254q0 -151 -77.5 -269.5t-204.5 -180.5t-279 -62q-121 0 -219 39l-127 -219h-111l151 260q-118 67 -185.5 178.5t-67.5 253.5zM418 481q0 -133 22 -223 l326 559q-52 76 -141 76q-207 0 -207 -412zM485 147q51 -77 140 -77q209 0 209 411q0 127 -23 224z" />
<glyph unicode="&#xf9;" horiz-adv-x="1402" d="M35 850v100l483 23v-629q0 -194 144 -194q99 0 161 78.5t62 224.5v290q0 63 -21.5 85t-85.5 22h-61v100l483 23v-744q0 -63 21.5 -84.5t85.5 -21.5h61v-100l-471 -23v170h-4q-127 -201 -363 -201q-95 0 -161.5 30.5t-101.5 86.5t-49.5 120t-14.5 146v391q0 63 -21.5 85 t-85.5 22h-61zM365 1401q0 45 31 76.5t83 31.5q39 0 73.5 -23.5t92.5 -92.5l225 -273h-125l-313 185q-32 18 -49.5 44.5t-17.5 51.5z" />
<glyph unicode="&#xfa;" horiz-adv-x="1402" d="M35 850v100l483 23v-629q0 -194 144 -194q99 0 161 78.5t62 224.5v290q0 63 -21.5 85t-85.5 22h-61v100l483 23v-744q0 -63 21.5 -84.5t85.5 -21.5h61v-100l-471 -23v170h-4q-127 -201 -363 -201q-95 0 -161.5 30.5t-101.5 86.5t-49.5 120t-14.5 146v391q0 63 -21.5 85 t-85.5 22h-61zM532 1120l226 273q58 69 92.5 92.5t73.5 23.5q52 0 83 -31.5t31 -76.5q0 -25 -17.5 -51.5t-49.5 -44.5l-314 -185h-125z" />
<glyph unicode="&#xfb;" horiz-adv-x="1402" d="M35 850v100l483 23v-629q0 -194 144 -194q99 0 161 78.5t62 224.5v290q0 63 -21.5 85t-85.5 22h-61v100l483 23v-744q0 -63 21.5 -84.5t85.5 -21.5h61v-100l-471 -23v170h-4q-127 -201 -363 -201q-95 0 -161.5 30.5t-101.5 86.5t-49.5 120t-14.5 146v391q0 63 -21.5 85 t-85.5 22h-61zM340 1120l252 365h221l252 -365h-139l-224 197l-223 -197h-139z" />
<glyph unicode="&#xfc;" horiz-adv-x="1402" d="M35 850v100l483 23v-629q0 -194 144 -194q99 0 161 78.5t62 224.5v290q0 63 -21.5 85t-85.5 22h-61v100l483 23v-744q0 -63 21.5 -84.5t85.5 -21.5h61v-100l-471 -23v170h-4q-127 -201 -363 -201q-95 0 -161.5 30.5t-101.5 86.5t-49.5 120t-14.5 146v391q0 63 -21.5 85 t-85.5 22h-61zM336 1276q0 60 42.5 102.5t102.5 42.5t103 -42.5t43 -102.5t-43 -103t-103 -43t-102.5 43t-42.5 103zM776 1276q0 60 43 102.5t103 42.5t102.5 -42.5t42.5 -102.5t-42.5 -103t-102.5 -43t-103 43t-43 103z" />
<glyph unicode="&#xfd;" d="M25 872v101h579v-101h-29q-46 0 -63.5 -12t-17.5 -41q0 -23 22 -69l217 -437l148 332q41 93 41 131q0 96 -131 96h-27v101h463v-101q-77 -10 -112 -42.5t-85 -139.5l-348 -751q-87 -187 -187.5 -273t-234.5 -86q-105 0 -169 60t-64 139q0 67 52.5 115.5t117.5 48.5 q71 0 114 -39.5t43 -100.5q0 -43 -18 -73q0 -11 14 -11q56 0 113 64.5t108 185.5l-432 844q-18 35 -38.5 46.5t-75.5 12.5zM457 1120l225 273q58 69 92.5 92.5t73.5 23.5q52 0 83.5 -31.5t31.5 -76.5q0 -25 -18 -51.5t-50 -44.5l-313 -185h-125z" />
<glyph unicode="&#xfe;" horiz-adv-x="1366" d="M35 1386v101l483 22v-684h4q102 168 318 168q139 0 242.5 -69t154.5 -180.5t51 -247.5q0 -142 -59 -262t-167 -192.5t-243 -72.5q-89 0 -170.5 38t-126.5 102h-4v-340q0 -60 18 -74t103 -14h59v-101h-651v101h35q85 0 103 14t18 74v1511q0 63 -21.5 84.5t-85.5 21.5h-61z M518 483q0 -176 54 -275t155 -99q72 0 120 51t68.5 132.5t20.5 190.5q0 176 -50.5 273.5t-135.5 97.5q-232 0 -232 -371z" />
<glyph unicode="&#xff;" d="M25 872v101h579v-101h-29q-46 0 -63.5 -12t-17.5 -41q0 -23 22 -69l217 -437l148 332q41 93 41 131q0 96 -131 96h-27v101h463v-101q-77 -10 -112 -42.5t-85 -139.5l-348 -751q-87 -187 -187.5 -273t-234.5 -86q-105 0 -169 60t-64 139q0 67 52.5 115.5t117.5 48.5 q71 0 114 -39.5t43 -100.5q0 -43 -18 -73q0 -11 14 -11q56 0 113 64.5t108 185.5l-432 844q-18 35 -38.5 46.5t-75.5 12.5zM260 1276q0 60 43 102.5t103 42.5t102.5 -42.5t42.5 -102.5t-42.5 -103t-102.5 -43t-103 43t-43 103zM700 1276q0 60 43 102.5t103 42.5t102.5 -42.5 t42.5 -102.5t-42.5 -103t-102.5 -43t-103 43t-43 103z" />
<glyph unicode="&#x152;" horiz-adv-x="2048" d="M0 717q0 156 50.5 294t143 242t232 165t307.5 61h1247l17 -533l-101 -8q-49 161 -109 253t-147.5 134.5t-218.5 42.5q-77 0 -97.5 -20t-20.5 -86v-439q129 0 190 72t84 221h113v-717h-111q-6 90 -32.5 158.5t-80 112t-127.5 43.5h-36v-512q0 -50 20.5 -70t83.5 -20 q208 0 323.5 105t176.5 337l104 -8l-22 -545h-1256q-147 0 -271.5 45t-207.5 118.5t-142 168t-85.5 192t-26.5 193.5zM406 743q0 -344 75.5 -488t261.5 -144q195 0 195 241v772q0 119 -52 181.5t-147 62.5q-187 0 -260 -144t-73 -481z" />
<glyph unicode="&#x153;" horiz-adv-x="1857" d="M66 481q0 114 45 211t121.5 162t178 102t214.5 37q89 0 181.5 -34t160.5 -99q64 59 159 96t181 37q236 0 362 -144t123 -382h-670v-43q0 -146 75 -239t206 -93q182 0 297 232l92 -39q-71 -164 -189.5 -240t-295.5 -76q-96 0 -194 34.5t-152 98.5q-84 -73 -162 -103 t-174 -30q-113 0 -214.5 37t-178 102t-121.5 162t-45 211zM418 481q0 -411 207 -411q206 0 206 411q0 412 -206 412q-207 0 -207 -412zM1122 567h285q41 0 55.5 15t14.5 57q0 125 -45.5 189.5t-124.5 64.5q-87 0 -136 -92.5t-49 -233.5z" />
<glyph unicode="&#x178;" horiz-adv-x="1478" d="M-25 1368v111h734v-111h-45q-64 0 -86.5 -10t-22.5 -37q0 -23 39 -84l268 -434l197 356q39 71 39 103q0 106 -195 106v111h600v-111q-74 -10 -124.5 -37.5t-91.5 -76t-95 -140.5l-270 -463v-438q0 -62 21 -82t101 -20h109v-111h-821v111h102q80 0 101.5 20t21.5 82v414 l-393 628q-45 72 -78 92.5t-111 20.5zM375 1741q0 60 42.5 102.5t102.5 42.5t103 -42.5t43 -102.5t-43 -103t-103 -43t-102.5 43t-42.5 103zM815 1741q0 60 43 102.5t103 42.5t102.5 -42.5t42.5 -102.5t-42.5 -103t-102.5 -43t-103 43t-43 103z" />
<glyph unicode="&#x2c6;" horiz-adv-x="681" d="M-20 1120l251 365h222l252 -365h-140l-223 197l-223 -197h-139z" />
<glyph unicode="&#x2dc;" horiz-adv-x="681" d="M-49 1161q14 75 44.5 136.5t83 104t116.5 42.5q48 0 114.5 -28t127 -55.5t93.5 -27.5q37 0 59.5 22.5t41.5 76.5h100q-27 -124 -88.5 -201.5t-159.5 -77.5q-55 0 -108.5 16.5t-87.5 37t-72.5 37t-67.5 16.5q-72 0 -100 -99h-96z" />
<glyph unicode="&#x2000;" horiz-adv-x="1011" />
<glyph unicode="&#x2001;" horiz-adv-x="2023" />
<glyph unicode="&#x2002;" horiz-adv-x="1011" />
<glyph unicode="&#x2003;" horiz-adv-x="2023" />
<glyph unicode="&#x2004;" horiz-adv-x="674" />
<glyph unicode="&#x2005;" horiz-adv-x="505" />
<glyph unicode="&#x2006;" horiz-adv-x="337" />
<glyph unicode="&#x2007;" horiz-adv-x="337" />
<glyph unicode="&#x2008;" horiz-adv-x="252" />
<glyph unicode="&#x2009;" horiz-adv-x="404" />
<glyph unicode="&#x200a;" horiz-adv-x="112" />
<glyph unicode="&#x2010;" horiz-adv-x="681" d="M86 356v262h510v-262h-510z" />
<glyph unicode="&#x2011;" horiz-adv-x="681" d="M86 356v262h510v-262h-510z" />
<glyph unicode="&#x2012;" horiz-adv-x="681" d="M86 356v262h510v-262h-510z" />
<glyph unicode="&#x2013;" horiz-adv-x="1024" d="M0 377v221h1024v-221h-1024z" />
<glyph unicode="&#x2014;" horiz-adv-x="2048" d="M0 377v221h2048v-221h-2048z" />
<glyph unicode="&#x2018;" horiz-adv-x="493" d="M45 1020q0 138 86 258t262 231l58 -82q-86 -53 -149.5 -130t-63.5 -130q0 -20 18 -20q5 0 20 2t21 2q64 0 109 -57.5t45 -118.5q0 -88 -59 -144.5t-134 -56.5q-98 0 -155.5 72t-57.5 174z" />
<glyph unicode="&#x2019;" horiz-adv-x="493" d="M45 856q86 53 149.5 130t63.5 130q0 21 -18 21q-5 0 -20 -2t-21 -2q-64 0 -109 57.5t-45 118.5q0 88 59 144t134 56q99 0 156 -71.5t57 -173.5q0 -138 -86.5 -258.5t-262.5 -231.5z" />
<glyph unicode="&#x201a;" horiz-adv-x="493" d="M45 158q0 88 59 144t134 56q99 0 156 -71.5t57 -173.5q0 -138 -86.5 -258.5t-262.5 -231.5l-57 82q86 53 149.5 130t63.5 130q0 21 -18 21q-5 0 -20 -2t-21 -2q-64 0 -109 57.5t-45 118.5z" />
<glyph unicode="&#x201c;" horiz-adv-x="985" d="M45 1020q0 138 86 258t262 231l58 -82q-86 -53 -149.5 -130t-63.5 -130q0 -20 18 -20q5 0 20 2t21 2q64 0 109 -57.5t45 -118.5q0 -88 -59 -144.5t-134 -56.5q-98 0 -155.5 72t-57.5 174zM535 1020q0 138 86 258t262 231l57 -82q-86 -53 -149.5 -130t-63.5 -130 q0 -20 18 -20q5 0 20 2t21 2q64 0 109 -57.5t45 -118.5q0 -88 -58.5 -144.5t-133.5 -56.5q-98 0 -155.5 72t-57.5 174z" />
<glyph unicode="&#x201d;" horiz-adv-x="985" d="M45 856q86 53 149.5 130t63.5 130q0 21 -18 21q-5 0 -20 -2t-21 -2q-64 0 -109 57.5t-45 118.5q0 88 59 144t134 56q99 0 156 -71.5t57 -173.5q0 -138 -86.5 -258.5t-262.5 -231.5zM535 856q86 53 149.5 130t63.5 130q0 21 -19 21q-5 0 -20 -2t-21 -2q-63 0 -108 57.5 t-45 118.5q0 88 58.5 144t133.5 56q99 0 156 -71.5t57 -173.5q0 -139 -86 -259t-262 -231z" />
<glyph unicode="&#x201e;" horiz-adv-x="985" d="M45 158q0 88 59 144t134 56q99 0 156 -71.5t57 -173.5q0 -138 -86.5 -258.5t-262.5 -231.5l-57 82q86 53 149.5 130t63.5 130q0 21 -18 21q-5 0 -20 -2t-21 -2q-64 0 -109 57.5t-45 118.5zM535 158q0 88 58.5 144t133.5 56q99 0 156 -71.5t57 -173.5q0 -139 -86 -259 t-262 -231l-57 82q86 53 149.5 130t63.5 130q0 21 -19 21q-5 0 -20 -2t-21 -2q-63 0 -108 57.5t-45 118.5z" />
<glyph unicode="&#x2022;" horiz-adv-x="1241" d="M250 739q0 154 108.5 262.5t262.5 108.5t262 -108.5t108 -262.5t-108 -262t-262 -108t-262.5 108t-108.5 262z" />
<glyph unicode="&#x2026;" horiz-adv-x="2048" d="M147 164q0 79 57.5 136.5t137.5 57.5t137.5 -57.5t57.5 -136.5q0 -80 -57.5 -137.5t-137.5 -57.5t-137.5 57.5t-57.5 137.5zM829 164q0 79 57.5 136.5t137.5 57.5t137.5 -57.5t57.5 -136.5q0 -80 -57.5 -137.5t-137.5 -57.5t-137.5 57.5t-57.5 137.5zM1511 164 q0 79 57.5 136.5t137.5 57.5t137.5 -57.5t57.5 -136.5q0 -80 -57.5 -137.5t-137.5 -57.5t-137.5 57.5t-57.5 137.5z" />
<glyph unicode="&#x202f;" horiz-adv-x="404" />
<glyph unicode="&#x2039;" horiz-adv-x="681" d="M127 469v37q51 34 182.5 145.5t161.5 141.5q20 20 45 20q18 0 28.5 -11t10.5 -26q0 -17 -16 -44.5t-78 -115.5l-90 -129l90 -129q63 -89 78.5 -115.5t15.5 -43.5q0 -15 -10.5 -26t-28.5 -11q-25 0 -45 20q-30 30 -161.5 141.5t-182.5 145.5z" />
<glyph unicode="&#x203a;" horiz-adv-x="681" d="M127 199q0 17 15.5 43.5t78.5 115.5l90 129l-90 129q-62 88 -78 115.5t-16 44.5q0 15 10.5 26t28.5 11q25 0 45 -20q30 -30 161.5 -141.5t182.5 -145.5v-37q-51 -34 -182.5 -145.5t-161.5 -141.5q-20 -20 -45 -20q-18 0 -28.5 11t-10.5 26z" />
<glyph unicode="&#x205f;" horiz-adv-x="505" />
<glyph unicode="&#x20ac;" horiz-adv-x="1175" d="M10 522l49 144h95v41q0 30 4 88h-148l49 143h121q44 219 196 362.5t361 143.5q93 0 161 -24.5t99 -59.5l68 80h86l14 -371h-100q-42 274 -279 274q-101 0 -173 -105.5t-95 -299.5h498l-49 -143h-459q-4 -58 -4 -74q0 -14 1 -32.5t1 -22.5h418l-52 -144h-358 q18 -221 91 -336.5t171 -115.5q68 0 116 18.5t80.5 60.5t53.5 93.5t41 132.5h100l-16 -402h-86l-66 76q-34 -32 -107.5 -56t-182.5 -24q-195 0 -346.5 151.5t-192.5 401.5h-160z" />
<glyph unicode="&#x2122;" horiz-adv-x="2048" d="M12 1278v201h746v-201h-74q-29 135 -133 135h-64v-555q0 -81 19 -109t88 -32v-66h-418v66q69 4 88 32t19 109v555h-64q-104 0 -133 -135h-74zM842 1413v66h327l285 -572l311 572h246v-66q-69 -4 -87.5 -32t-18.5 -109v-414q0 -81 18.5 -109t87.5 -32v-66h-405v66 q69 4 87.5 32t18.5 109v387h-4l-317 -596h-27l-287 596h-4v-387q0 -81 19 -109t88 -32v-66h-303v66q69 4 87.5 32t18.5 109v449q0 46 -46 76t-95 30z" />
<glyph unicode="&#xe000;" horiz-adv-x="972" d="M0 0v973h973v-973h-973z" />
<glyph unicode="&#xfb01;" horiz-adv-x="1402" d="M23 850v123h180q0 121 28.5 213.5t78.5 153t125 99t161.5 54.5t194.5 16q200 0 298.5 -64.5t98.5 -156.5q0 -74 -46.5 -118t-119.5 -44q-64 0 -113 37.5t-49 100.5q0 32 15.5 61.5t15.5 40.5q0 19 -26.5 31t-69.5 12q-160 0 -218.5 -101.5t-58.5 -334.5h395q67 0 120 3.5 t106.5 9.5t68.5 7v-805q0 -60 18 -74t103 -14h35v-100h-627v100h35q85 0 103 14t18 74v555q0 63 -21.5 85t-85.5 22h-268v-662q0 -60 18 -74t103 -14h23v-100h-615v100h35q85 0 103 14t18 74v662h-180z" />
<glyph unicode="&#xfb02;" horiz-adv-x="1402" d="M23 850v123h180q0 121 28.5 213.5t78.5 153t125 99t161.5 54.5t194.5 16q116 0 204 -30l213 30v-1321q0 -60 18 -74t103 -14h35v-100h-627v100h35q85 0 103 14t18 74v662h-375v-662q0 -60 18 -74t103 -14h23v-100h-615v100h35q85 0 103 14t18 74v662h-180zM518 973h375 v178q-37 16 -55.5 48t-18.5 67q0 31 12.5 53.5t25.5 35.5t13 19q0 16 -22 25.5t-53 9.5q-160 0 -218.5 -101.5t-58.5 -334.5z" />
</font>
</defs>
</svg>
